%TF.GenerationSoftware,KiCad,Pcbnew,10.0.5-1.fc44*%
%TF.CreationDate,2026-08-16T12:41:38-05:00*%
%TF.ProjectId,light_automation_module,6c696768-745f-4617-9574-6f6d6174696f,rev?*%
%TF.SameCoordinates,Original*%
%TF.FileFunction,Copper,L1,Top*%
%TF.FilePolarity,Positive*%
%FSLAX46Y46*%
G04 Gerber Fmt 4.6, Leading zero omitted, Abs format (unit mm)*
G04 Created by KiCad (PCBNEW 10.0.5-1.fc44) date 2026-08-16 12:41:38*
%MOMM*%
%LPD*%
G01*
G04 APERTURE LIST*
G04 Aperture macros list*
%AMRoundRect*
0 Rectangle with rounded corners*
0 $1 Rounding radius*
0 $2 $3 $4 $5 $6 $7 $8 $9 X,Y pos of 4 corners*
0 Add a 4 corners polygon primitive as box body*
4,1,4,$2,$3,$4,$5,$6,$7,$8,$9,$2,$3,0*
0 Add four circle primitives for the rounded corners*
1,1,$1+$1,$2,$3*
1,1,$1+$1,$4,$5*
1,1,$1+$1,$6,$7*
1,1,$1+$1,$8,$9*
0 Add four rect primitives between the rounded corners*
20,1,$1+$1,$2,$3,$4,$5,0*
20,1,$1+$1,$4,$5,$6,$7,0*
20,1,$1+$1,$6,$7,$8,$9,0*
20,1,$1+$1,$8,$9,$2,$3,0*%
G04 Aperture macros list end*
%TA.AperFunction,SMDPad,CuDef*%
%ADD10RoundRect,0.190500X-0.444500X-0.444500X0.444500X-0.444500X0.444500X0.444500X-0.444500X0.444500X0*%
%TD*%
%TA.AperFunction,SMDPad,CuDef*%
%ADD11RoundRect,0.250000X0.300000X0.300000X-0.300000X0.300000X-0.300000X-0.300000X0.300000X-0.300000X0*%
%TD*%
%TA.AperFunction,SMDPad,CuDef*%
%ADD12RoundRect,0.225000X0.250000X-0.225000X0.250000X0.225000X-0.250000X0.225000X-0.250000X-0.225000X0*%
%TD*%
%TA.AperFunction,SMDPad,CuDef*%
%ADD13R,1.752600X0.660400*%
%TD*%
%TA.AperFunction,SMDPad,CuDef*%
%ADD14RoundRect,0.218750X0.256250X-0.218750X0.256250X0.218750X-0.256250X0.218750X-0.256250X-0.218750X0*%
%TD*%
%TA.AperFunction,SMDPad,CuDef*%
%ADD15RoundRect,0.200000X-0.200000X-0.275000X0.200000X-0.275000X0.200000X0.275000X-0.200000X0.275000X0*%
%TD*%
%TA.AperFunction,SMDPad,CuDef*%
%ADD16RoundRect,0.200000X0.275000X-0.200000X0.275000X0.200000X-0.275000X0.200000X-0.275000X-0.200000X0*%
%TD*%
%TA.AperFunction,SMDPad,CuDef*%
%ADD17RoundRect,0.500000X-0.875000X-0.500000X0.875000X-0.500000X0.875000X0.500000X-0.875000X0.500000X0*%
%TD*%
%TA.AperFunction,SMDPad,CuDef*%
%ADD18C,1.700000*%
%TD*%
%TA.AperFunction,SMDPad,CuDef*%
%ADD19RoundRect,0.275000X0.975000X0.275000X-0.975000X0.275000X-0.975000X-0.275000X0.975000X-0.275000X0*%
%TD*%
%TA.AperFunction,ComponentPad*%
%ADD20RoundRect,0.250000X-0.550000X0.550000X-0.550000X-0.550000X0.550000X-0.550000X0.550000X0.550000X0*%
%TD*%
%TA.AperFunction,ComponentPad*%
%ADD21C,1.600000*%
%TD*%
%TA.AperFunction,SMDPad,CuDef*%
%ADD22R,1.854388X0.612132*%
%TD*%
%TA.AperFunction,SMDPad,CuDef*%
%ADD23R,1.150000X0.600000*%
%TD*%
%TA.AperFunction,ViaPad*%
%ADD24C,0.600000*%
%TD*%
%TA.AperFunction,ViaPad*%
%ADD25C,1.000000*%
%TD*%
%TA.AperFunction,Conductor*%
%ADD26C,0.500000*%
%TD*%
%TA.AperFunction,Conductor*%
%ADD27C,0.250000*%
%TD*%
%TA.AperFunction,Conductor*%
%ADD28C,0.800000*%
%TD*%
G04 APERTURE END LIST*
D10*
%TO.P,J1,1,Pin_1_1*%
%TO.N,Net-(D1-A)*%
X133500000Y-94500000D03*
%TO.P,J1,2,Pin_2_2*%
%TO.N,/GND*%
X133500000Y-96500000D03*
%TD*%
D11*
%TO.P,D1,1,K_1*%
%TO.N,/12V*%
X138400000Y-92000000D03*
%TO.P,D1,2,A_2*%
%TO.N,Net-(D1-A)*%
X135600000Y-92000000D03*
%TD*%
D12*
%TO.P,C8,1*%
%TO.N,/5V*%
X160500000Y-99300000D03*
%TO.P,C8,2*%
%TO.N,/GND*%
X160500000Y-97750000D03*
%TD*%
%TO.P,C4,1*%
%TO.N,/12V*%
X149000000Y-99300000D03*
%TO.P,C4,2*%
%TO.N,/GND*%
X149000000Y-97750000D03*
%TD*%
D13*
%TO.P,U3,1,1_1*%
%TO.N,Net-(U1-D5)*%
X134500000Y-86060000D03*
%TO.P,U3,2,2_2*%
%TO.N,/3V3*%
X134500000Y-84790000D03*
%TO.P,U3,3,3_3*%
%TO.N,/GND*%
X134500000Y-83520000D03*
%TO.P,U3,4,4_4*%
%TO.N,Net-(U1-D4)*%
X134500000Y-82250000D03*
%TD*%
D10*
%TO.P,J2,1,Pin_1_1*%
%TO.N,/12V*%
X164500000Y-95000000D03*
%TO.P,J2,2,Pin_2_2*%
%TO.N,/LED_CATHODE*%
X164500000Y-97000000D03*
%TD*%
D14*
%TO.P,L1,1,1_1*%
%TO.N,Net-(U2-SW)*%
X149000000Y-94250000D03*
%TO.P,L1,2,2_2*%
%TO.N,/5V*%
X149000000Y-92675000D03*
%TD*%
D12*
%TO.P,C6,1*%
%TO.N,/5V*%
X157500000Y-94250000D03*
%TO.P,C6,2*%
%TO.N,/GND*%
X157500000Y-92700000D03*
%TD*%
D15*
%TO.P,R2,1*%
%TO.N,Net-(Q1-G)*%
X161600000Y-85675000D03*
%TO.P,R2,2*%
%TO.N,/GND*%
X163250000Y-85675000D03*
%TD*%
D16*
%TO.P,R1,1*%
%TO.N,Net-(U1-D10)*%
X161500000Y-90500000D03*
%TO.P,R1,2*%
%TO.N,Net-(Q1-G)*%
X161500000Y-88850000D03*
%TD*%
D12*
%TO.P,C5,1*%
%TO.N,/5V*%
X157250000Y-99250000D03*
%TO.P,C5,2*%
%TO.N,Net-(U2-BOOT)*%
X157250000Y-97700000D03*
%TD*%
D17*
%TO.P,U1,1,D0_1*%
%TO.N,unconnected-(U1-D0-Pad1)*%
X141504500Y-72810250D03*
%TO.P,U1,2,D1_2*%
%TO.N,unconnected-(U1-D1-Pad2)*%
X141504500Y-75350250D03*
%TO.P,U1,3,D2_3*%
%TO.N,unconnected-(U1-D2-Pad3)*%
X141504500Y-77890250D03*
%TO.P,U1,4,D3_4*%
%TO.N,unconnected-(U1-D3-Pad4)*%
X141504500Y-80430250D03*
%TO.P,U1,5,D4_5*%
%TO.N,Net-(U1-D4)*%
X141504500Y-82970250D03*
%TO.P,U1,6,D5_6*%
%TO.N,Net-(U1-D5)*%
X141504500Y-85510250D03*
%TO.P,U1,7,D6_7*%
%TO.N,unconnected-(U1-D6-Pad7)*%
X141504500Y-88050250D03*
%TO.P,U1,8,D7_8*%
%TO.N,unconnected-(U1-D7-Pad8)*%
X157669500Y-88050250D03*
%TO.P,U1,9,D8_9*%
%TO.N,unconnected-(U1-D8-Pad9)*%
X157669500Y-85510250D03*
%TO.P,U1,10,D9/BOOT_10*%
%TO.N,unconnected-(U1-D9{slash}BOOT-Pad10)*%
X157669500Y-82970250D03*
%TO.P,U1,11,D10_11*%
%TO.N,Net-(U1-D10)*%
X157669500Y-80430250D03*
%TO.P,U1,12,3V3_OUT_12*%
%TO.N,/3V3*%
X157669500Y-77890250D03*
%TO.P,U1,13,GND_13*%
%TO.N,/GND*%
X157669500Y-75350250D03*
%TO.P,U1,14,VBUS_14*%
%TO.N,/5V*%
X157669500Y-72810250D03*
D18*
%TO.P,U1,15,D3/MTDI_15*%
%TO.N,unconnected-(U1-D3{slash}MTDI-Pad15)*%
X148289500Y-71798250D03*
%TO.P,U1,16,D5/MTDO_16*%
%TO.N,unconnected-(U1-D5{slash}MTDO-Pad16)*%
X150829500Y-71798250D03*
%TO.P,U1,17,EN_17*%
%TO.N,unconnected-(U1-EN-Pad17)*%
X148289500Y-74338250D03*
%TO.P,U1,18,GND_18*%
%TO.N,unconnected-(U1-GND-Pad18)*%
X150829500Y-74338250D03*
%TO.P,U1,19,D2/MTMS_19*%
%TO.N,unconnected-(U1-D2{slash}MTMS-Pad19)*%
X148289500Y-76878250D03*
%TO.P,U1,20,D4/MTCK_20*%
%TO.N,unconnected-(U1-D4{slash}MTCK-Pad20)*%
X150829500Y-76878250D03*
D19*
%TO.P,U1,21,VBAT_21*%
%TO.N,unconnected-(U1-VBAT-Pad21)*%
X145114500Y-80048250D03*
%TO.P,U1,22,GND_22*%
%TO.N,unconnected-(U1-GND-Pad22)*%
X145114500Y-78143250D03*
%TD*%
D12*
%TO.P,C2,1*%
%TO.N,/12V*%
X146000000Y-94250000D03*
%TO.P,C2,2*%
%TO.N,/GND*%
X146000000Y-92700000D03*
%TD*%
D20*
%TO.P,C3,1*%
%TO.N,/12V*%
X140500000Y-95250000D03*
D21*
%TO.P,C3,2*%
%TO.N,/GND*%
X140500000Y-97750000D03*
%TD*%
D22*
%TO.P,U2,1,GND_1*%
%TO.N,/GND*%
X152949416Y-95099998D03*
%TO.P,U2,2,SW_2*%
%TO.N,Net-(U2-SW)*%
X152949416Y-96049999D03*
%TO.P,U2,3,VIN_3*%
%TO.N,/12V*%
X152949416Y-97000000D03*
%TO.P,U2,4,FB_4*%
%TO.N,/5V*%
X155250000Y-97000000D03*
%TO.P,U2,5,EN_5*%
%TO.N,unconnected-(U2-EN-Pad5)*%
X155250000Y-96049999D03*
%TO.P,U2,6,BOOT_6*%
%TO.N,Net-(U2-BOOT)*%
X155250000Y-95099998D03*
%TD*%
D12*
%TO.P,C7,1*%
%TO.N,/5V*%
X160500000Y-94300000D03*
%TO.P,C7,2*%
%TO.N,/GND*%
X160500000Y-92750000D03*
%TD*%
D23*
%TO.P,Q1,1,G_1*%
%TO.N,Net-(Q1-G)*%
X164050000Y-88800000D03*
%TO.P,Q1,2,S_2*%
%TO.N,/GND*%
X164050000Y-90700000D03*
%TO.P,Q1,3,D_3*%
%TO.N,/LED_CATHODE*%
X166250000Y-89750000D03*
%TD*%
D12*
%TO.P,C1,1*%
%TO.N,/12V*%
X146000000Y-99300000D03*
%TO.P,C1,2*%
%TO.N,/GND*%
X146000000Y-97750000D03*
%TD*%
D24*
%TO.N,/GND*%
X152000000Y-86500000D03*
X164000000Y-90750000D03*
X133500000Y-96500000D03*
X148000000Y-96250000D03*
X145000000Y-86500000D03*
X163250000Y-85750000D03*
X152980039Y-95019960D03*
X163750000Y-79000000D03*
X162250000Y-96000000D03*
X160500000Y-92750000D03*
X160500000Y-97750000D03*
X134500000Y-83500000D03*
X149500000Y-89250000D03*
X149000000Y-97750000D03*
X153000000Y-78000000D03*
X164750000Y-83500000D03*
X149750000Y-81250000D03*
X154250000Y-83250000D03*
X146000000Y-92750000D03*
X157750000Y-75500000D03*
X157500000Y-92750000D03*
X145000000Y-74000000D03*
X135250000Y-78500000D03*
X146000000Y-97750000D03*
X146250000Y-82750000D03*
D25*
%TO.N,Net-(D1-A)*%
X135500000Y-92000000D03*
X133500000Y-94500000D03*
D24*
%TO.N,Net-(U2-SW)*%
X149000000Y-94250000D03*
X152949416Y-96049999D03*
D25*
%TO.N,/12V*%
X164500000Y-95000000D03*
X152949416Y-97056067D03*
X146000000Y-99300000D03*
X146000000Y-94250000D03*
X149000000Y-99300000D03*
X138500000Y-92000000D03*
D24*
%TO.N,/5V*%
X155250000Y-97000000D03*
X160500000Y-99300000D03*
X157669500Y-72810250D03*
X160500000Y-94300000D03*
X157500000Y-94250000D03*
X149000000Y-92750000D03*
X157250000Y-99250000D03*
%TO.N,Net-(U2-BOOT)*%
X155250000Y-95000000D03*
X157250000Y-97700000D03*
%TD*%
%TO.N,/GND*%
D26*
X157669500Y-75350250D02*
X157669500Y-75419500D01*
X164050000Y-90700000D02*
X164000000Y-90750000D01*
X163250000Y-85675000D02*
X163250000Y-85750000D01*
X134500000Y-83520000D02*
X134500000Y-83500000D01*
X152949416Y-95050583D02*
X152980039Y-95019960D01*
X146000000Y-92700000D02*
X146000000Y-92750000D01*
X157500000Y-92700000D02*
X157500000Y-92750000D01*
X157669500Y-75419500D02*
X157750000Y-75500000D01*
X149000000Y-97750000D02*
X149000000Y-98000000D01*
X152949416Y-95099998D02*
X152949416Y-95050583D01*
%TO.N,Net-(D1-A)*%
D27*
X135600000Y-92400000D02*
X135600000Y-92000000D01*
%TO.N,/12V*%
D28*
X138400000Y-92000000D02*
X138500000Y-92000000D01*
X164487786Y-95000000D02*
X164500000Y-95000000D01*
%TO.N,/5V*%
D26*
X149000000Y-92675000D02*
X149000000Y-92750000D01*
%TO.N,Net-(U2-BOOT)*%
D27*
X155250000Y-95099998D02*
X155250000Y-95000000D01*
%TO.N,Net-(Q1-G)*%
X161500000Y-88850000D02*
X164000000Y-88850000D01*
X161500000Y-88850000D02*
X161500000Y-85775000D01*
X161500000Y-85775000D02*
X161600000Y-85675000D01*
X164000000Y-88850000D02*
X164050000Y-88800000D01*
%TO.N,/LED_CATHODE*%
X166250000Y-95250000D02*
X164500000Y-97000000D01*
X166250000Y-89750000D02*
X166250000Y-95250000D01*
%TO.N,Net-(U1-D10)*%
X157669500Y-80430250D02*
X157678498Y-80430250D01*
X160700000Y-83451752D02*
X160700000Y-89700000D01*
X157678498Y-80430250D02*
X160700000Y-83451752D01*
X160700000Y-89700000D02*
X161500000Y-90500000D01*
%TO.N,Net-(U1-D4)*%
X140784250Y-82250000D02*
X141504500Y-82970250D01*
X134500000Y-82250000D02*
X140784250Y-82250000D01*
X140866750Y-82970250D02*
X141504500Y-82970250D01*
%TO.N,/3V3*%
D26*
X135833750Y-89500250D02*
X144684500Y-89500250D01*
X134500000Y-84790000D02*
X133663500Y-84790000D01*
X156294500Y-77890250D02*
X157669500Y-77890250D01*
X144684500Y-89500250D02*
X156294500Y-77890250D01*
X133663500Y-84790000D02*
X133173700Y-85279800D01*
X133173700Y-85279800D02*
X133173700Y-86840200D01*
X133173700Y-86840200D02*
X135833750Y-89500250D01*
%TO.N,Net-(U1-D5)*%
D27*
X134500000Y-86060000D02*
X140954750Y-86060000D01*
X140954750Y-86060000D02*
X141504500Y-85510250D01*
%TD*%
M02*
