M48
; DRILL file KiCad 10.0.5-1.fc44 date 2026-08-16T12:41:31
; FORMAT={-:-/ absolute / metric / decimal}
; #@! TF.CreationDate,2026-08-16T12:41:31-05:00
; #@! TF.GenerationSoftware,Kicad,Pcbnew,10.0.5-1.fc44
; #@! TF.FileFunction,Plated,1,4,PTH
FMAT,2
METRIC
; #@! TA.AperFunction,Plated,PTH,ViaDrill
T1C0.300
; #@! TA.AperFunction,Plated,PTH,ViaDrill
T2C0.400
; #@! TA.AperFunction,Plated,PTH,ViaDrill
T3C0.500
; #@! TA.AperFunction,Plated,PTH,ComponentDrill
T4C0.800
%
G90
G05
T1
X135.25Y-78.5
X145.0Y-74.0
X145.0Y-86.5
X146.25Y-82.75
X148.0Y-96.25
X149.5Y-89.25
X149.75Y-81.25
X152.0Y-86.5
X153.0Y-78.0
X154.25Y-83.25
X155.25Y-95.0
X157.25Y-97.7
X162.25Y-96.0
X163.75Y-79.0
X164.75Y-83.5
T2
X133.5Y-96.5
X134.5Y-83.5
X146.0Y-92.75
X146.0Y-97.75
X149.0Y-92.75
X149.0Y-94.25
X149.0Y-97.75
X152.949Y-96.05
X152.98Y-95.02
X155.25Y-97.0
X157.25Y-99.25
X157.5Y-92.75
X157.5Y-94.25
X157.669Y-72.81
X157.75Y-75.5
X160.5Y-92.75
X160.5Y-94.3
X160.5Y-97.75
X160.5Y-99.3
X163.25Y-85.75
X164.0Y-90.75
T3
X133.5Y-94.5
X135.5Y-92.0
X138.5Y-92.0
X146.0Y-94.25
X146.0Y-99.3
X149.0Y-99.3
X152.949Y-97.056
X164.5Y-95.0
T4
X140.5Y-95.25
X140.5Y-97.75
M30
