%TF.GenerationSoftware,KiCad,Pcbnew,10.0.5-1.fc44*%
%TF.CreationDate,2026-08-16T12:41:39-05:00*%
%TF.ProjectId,light_automation_module,6c696768-745f-4617-9574-6f6d6174696f,rev?*%
%TF.SameCoordinates,Original*%
%TF.FileFunction,Copper,L4,Bot*%
%TF.FilePolarity,Positive*%
%FSLAX46Y46*%
G04 Gerber Fmt 4.6, Leading zero omitted, Abs format (unit mm)*
G04 Created by KiCad (PCBNEW 10.0.5-1.fc44) date 2026-08-16 12:41:39*
%MOMM*%
%LPD*%
G01*
G04 APERTURE LIST*
G04 Aperture macros list*
%AMRoundRect*
0 Rectangle with rounded corners*
0 $1 Rounding radius*
0 $2 $3 $4 $5 $6 $7 $8 $9 X,Y pos of 4 corners*
0 Add a 4 corners polygon primitive as box body*
4,1,4,$2,$3,$4,$5,$6,$7,$8,$9,$2,$3,0*
0 Add four circle primitives for the rounded corners*
1,1,$1+$1,$2,$3*
1,1,$1+$1,$4,$5*
1,1,$1+$1,$6,$7*
1,1,$1+$1,$8,$9*
0 Add four rect primitives between the rounded corners*
20,1,$1+$1,$2,$3,$4,$5,0*
20,1,$1+$1,$4,$5,$6,$7,0*
20,1,$1+$1,$6,$7,$8,$9,0*
20,1,$1+$1,$8,$9,$2,$3,0*%
G04 Aperture macros list end*
%TA.AperFunction,ComponentPad*%
%ADD10RoundRect,0.250000X-0.550000X0.550000X-0.550000X-0.550000X0.550000X-0.550000X0.550000X0.550000X0*%
%TD*%
%TA.AperFunction,ComponentPad*%
%ADD11C,1.600000*%
%TD*%
%TA.AperFunction,ViaPad*%
%ADD12C,0.600000*%
%TD*%
%TA.AperFunction,ViaPad*%
%ADD13C,1.000000*%
%TD*%
%TA.AperFunction,Conductor*%
%ADD14C,0.800000*%
%TD*%
%TA.AperFunction,Conductor*%
%ADD15C,0.500000*%
%TD*%
%TA.AperFunction,Conductor*%
%ADD16C,0.250000*%
%TD*%
G04 APERTURE END LIST*
D10*
%TO.P,C3,1*%
%TO.N,/12V*%
X140500000Y-95250000D03*
D11*
%TO.P,C3,2*%
%TO.N,/GND*%
X140500000Y-97750000D03*
%TD*%
D12*
%TO.N,/GND*%
X152000000Y-86500000D03*
X164000000Y-90750000D03*
X133500000Y-96500000D03*
X148000000Y-96250000D03*
X145000000Y-86500000D03*
X163250000Y-85750000D03*
X152980039Y-95019960D03*
X163750000Y-79000000D03*
X162250000Y-96000000D03*
X160500000Y-92750000D03*
X160500000Y-97750000D03*
X134500000Y-83500000D03*
X149500000Y-89250000D03*
X149000000Y-97750000D03*
X153000000Y-78000000D03*
X164750000Y-83500000D03*
X149750000Y-81250000D03*
X154250000Y-83250000D03*
X146000000Y-92750000D03*
X157750000Y-75500000D03*
X157500000Y-92750000D03*
X145000000Y-74000000D03*
X135250000Y-78500000D03*
X146000000Y-97750000D03*
X146250000Y-82750000D03*
D13*
%TO.N,Net-(D1-A)*%
X135500000Y-92000000D03*
X133500000Y-94500000D03*
D12*
%TO.N,Net-(U2-SW)*%
X149000000Y-94250000D03*
X152949416Y-96049999D03*
D13*
%TO.N,/12V*%
X164500000Y-95000000D03*
X152949416Y-97056067D03*
X146000000Y-99300000D03*
X146000000Y-94250000D03*
X149000000Y-99300000D03*
X138500000Y-92000000D03*
D12*
%TO.N,/5V*%
X155250000Y-97000000D03*
X160500000Y-99300000D03*
X157669500Y-72810250D03*
X160500000Y-94300000D03*
X157500000Y-94250000D03*
X149000000Y-92750000D03*
X157250000Y-99250000D03*
%TO.N,Net-(U2-BOOT)*%
X155250000Y-95000000D03*
X157250000Y-97700000D03*
%TD*%
%TO.N,Net-(D1-A)*%
D14*
X133500000Y-94500000D02*
X135500000Y-92500000D01*
X135500000Y-92500000D02*
X135500000Y-92000000D01*
%TO.N,Net-(U2-SW)*%
D15*
X149000000Y-94250000D02*
X151149417Y-94250000D01*
X151149417Y-94250000D02*
X152949416Y-96049999D01*
%TO.N,/12V*%
D14*
X150705483Y-99300000D02*
X152949416Y-97056067D01*
X152949416Y-97056067D02*
X156093349Y-100200000D01*
X146000000Y-99300000D02*
X149000000Y-99300000D01*
X145000000Y-95250000D02*
X146000000Y-94250000D01*
X145000000Y-98300000D02*
X146000000Y-99300000D01*
X164500000Y-96572793D02*
X164500000Y-95000000D01*
X160872793Y-100200000D02*
X164500000Y-96572793D01*
X138500000Y-93250000D02*
X140500000Y-95250000D01*
X145000000Y-95250000D02*
X145000000Y-98300000D01*
X156093349Y-100200000D02*
X160872793Y-100200000D01*
X140500000Y-95250000D02*
X145000000Y-95250000D01*
X138500000Y-92000000D02*
X138500000Y-93250000D01*
X149000000Y-99300000D02*
X150705483Y-99300000D01*
%TO.N,/5V*%
D15*
X157500000Y-94250000D02*
X158000000Y-94750000D01*
X158000000Y-94750000D02*
X158000000Y-98500000D01*
X156000000Y-92750000D02*
X157500000Y-94250000D01*
X158000000Y-98500000D02*
X157250000Y-99250000D01*
X155250000Y-97000000D02*
X155250000Y-97250000D01*
X155250000Y-97250000D02*
X157250000Y-99250000D01*
X156000000Y-74479750D02*
X157669500Y-72810250D01*
X158000000Y-98500000D02*
X159700000Y-98500000D01*
X156000000Y-92750000D02*
X156000000Y-74479750D01*
X159700000Y-98500000D02*
X160500000Y-99300000D01*
X160050000Y-94750000D02*
X160500000Y-94300000D01*
X158000000Y-94750000D02*
X160050000Y-94750000D01*
X149000000Y-92750000D02*
X156000000Y-92750000D01*
%TO.N,Net-(U2-BOOT)*%
D16*
X157250000Y-97000000D02*
X157250000Y-97700000D01*
X155250000Y-95000000D02*
X157250000Y-97000000D01*
%TD*%
M02*
