%TF.GenerationSoftware,KiCad,Pcbnew,10.0.5-1.fc44*%
%TF.CreationDate,2026-08-16T12:41:39-05:00*%
%TF.ProjectId,light_automation_module,6c696768-745f-4617-9574-6f6d6174696f,rev?*%
%TF.SameCoordinates,Original*%
%TF.FileFunction,Copper,L2,Inr*%
%TF.FilePolarity,Positive*%
%FSLAX46Y46*%
G04 Gerber Fmt 4.6, Leading zero omitted, Abs format (unit mm)*
G04 Created by KiCad (PCBNEW 10.0.5-1.fc44) date 2026-08-16 12:41:39*
%MOMM*%
%LPD*%
G01*
G04 APERTURE LIST*
G04 Aperture macros list*
%AMRoundRect*
0 Rectangle with rounded corners*
0 $1 Rounding radius*
0 $2 $3 $4 $5 $6 $7 $8 $9 X,Y pos of 4 corners*
0 Add a 4 corners polygon primitive as box body*
4,1,4,$2,$3,$4,$5,$6,$7,$8,$9,$2,$3,0*
0 Add four circle primitives for the rounded corners*
1,1,$1+$1,$2,$3*
1,1,$1+$1,$4,$5*
1,1,$1+$1,$6,$7*
1,1,$1+$1,$8,$9*
0 Add four rect primitives between the rounded corners*
20,1,$1+$1,$2,$3,$4,$5,0*
20,1,$1+$1,$4,$5,$6,$7,0*
20,1,$1+$1,$6,$7,$8,$9,0*
20,1,$1+$1,$8,$9,$2,$3,0*%
G04 Aperture macros list end*
%TA.AperFunction,ComponentPad*%
%ADD10RoundRect,0.250000X-0.550000X0.550000X-0.550000X-0.550000X0.550000X-0.550000X0.550000X0.550000X0*%
%TD*%
%TA.AperFunction,ComponentPad*%
%ADD11C,1.600000*%
%TD*%
%TA.AperFunction,ViaPad*%
%ADD12C,0.600000*%
%TD*%
%TA.AperFunction,ViaPad*%
%ADD13C,1.000000*%
%TD*%
G04 APERTURE END LIST*
D10*
%TO.N,/12V*%
%TO.C,C3*%
X140500000Y-95250000D03*
D11*
%TO.N,/GND*%
X140500000Y-97750000D03*
%TD*%
D12*
%TO.N,/GND*%
X152000000Y-86500000D03*
X164000000Y-90750000D03*
X133500000Y-96500000D03*
X148000000Y-96250000D03*
X145000000Y-86500000D03*
X163250000Y-85750000D03*
X152980039Y-95019960D03*
X163750000Y-79000000D03*
X162250000Y-96000000D03*
X160500000Y-92750000D03*
X160500000Y-97750000D03*
X134500000Y-83500000D03*
X149500000Y-89250000D03*
X149000000Y-97750000D03*
X153000000Y-78000000D03*
X164750000Y-83500000D03*
X149750000Y-81250000D03*
X154250000Y-83250000D03*
X146000000Y-92750000D03*
X157750000Y-75500000D03*
X157500000Y-92750000D03*
X145000000Y-74000000D03*
X135250000Y-78500000D03*
X146000000Y-97750000D03*
X146250000Y-82750000D03*
D13*
%TO.N,Net-(D1-A)*%
X135500000Y-92000000D03*
X133500000Y-94500000D03*
D12*
%TO.N,Net-(U2-SW)*%
X149000000Y-94250000D03*
X152949416Y-96049999D03*
D13*
%TO.N,/12V*%
X164500000Y-95000000D03*
X152949416Y-97056067D03*
X146000000Y-99300000D03*
X146000000Y-94250000D03*
X149000000Y-99300000D03*
X138500000Y-92000000D03*
D12*
%TO.N,/5V*%
X155250000Y-97000000D03*
X160500000Y-99300000D03*
X157669500Y-72810250D03*
X160500000Y-94300000D03*
X157500000Y-94250000D03*
X149000000Y-92750000D03*
X157250000Y-99250000D03*
%TO.N,Net-(U2-BOOT)*%
X155250000Y-95000000D03*
X157250000Y-97700000D03*
%TD*%
%TA.AperFunction,Conductor*%
%TO.N,/GND*%
G36*
X162752702Y-70150618D02*
G01*
X162766135Y-70151204D01*
X163145485Y-70167766D01*
X163156220Y-70168706D01*
X163543339Y-70219671D01*
X163553963Y-70221544D01*
X163935170Y-70306056D01*
X163945582Y-70308845D01*
X164317976Y-70426261D01*
X164328111Y-70429950D01*
X164688840Y-70579369D01*
X164698631Y-70583935D01*
X164778364Y-70625441D01*
X165044942Y-70764213D01*
X165054310Y-70769621D01*
X165383602Y-70979403D01*
X165392463Y-70985608D01*
X165702209Y-71223284D01*
X165710496Y-71230238D01*
X165998346Y-71494004D01*
X166005995Y-71501653D01*
X166269761Y-71789503D01*
X166276715Y-71797790D01*
X166514391Y-72107536D01*
X166520596Y-72116397D01*
X166730378Y-72445689D01*
X166735786Y-72455057D01*
X166916061Y-72801361D01*
X166920633Y-72811165D01*
X167070043Y-73171873D01*
X167073742Y-73182036D01*
X167114325Y-73310749D01*
X167191148Y-73554398D01*
X167193947Y-73564845D01*
X167208106Y-73628711D01*
X167278452Y-73946024D01*
X167280330Y-73956676D01*
X167331291Y-74343756D01*
X167332234Y-74354533D01*
X167349382Y-74747297D01*
X167349500Y-74752706D01*
X167349500Y-97497293D01*
X167349382Y-97502702D01*
X167332234Y-97895466D01*
X167331291Y-97906243D01*
X167280330Y-98293323D01*
X167278452Y-98303975D01*
X167193948Y-98685151D01*
X167191148Y-98695601D01*
X167073743Y-99067961D01*
X167070043Y-99078126D01*
X166920633Y-99438834D01*
X166916061Y-99448638D01*
X166735786Y-99794942D01*
X166730378Y-99804310D01*
X166520596Y-100133602D01*
X166514391Y-100142463D01*
X166276715Y-100452209D01*
X166269761Y-100460496D01*
X166005995Y-100748346D01*
X165998346Y-100755995D01*
X165710496Y-101019761D01*
X165702209Y-101026715D01*
X165392463Y-101264391D01*
X165383602Y-101270596D01*
X165054310Y-101480378D01*
X165044942Y-101485786D01*
X164698638Y-101666061D01*
X164688834Y-101670633D01*
X164328126Y-101820043D01*
X164317961Y-101823743D01*
X163945601Y-101941148D01*
X163935151Y-101943948D01*
X163553975Y-102028452D01*
X163543323Y-102030330D01*
X163156243Y-102081291D01*
X163145466Y-102082234D01*
X162752703Y-102099382D01*
X162747294Y-102099500D01*
X136752706Y-102099500D01*
X136747297Y-102099382D01*
X136354533Y-102082234D01*
X136343758Y-102081291D01*
X136150216Y-102055810D01*
X135956676Y-102030330D01*
X135946024Y-102028452D01*
X135698243Y-101973520D01*
X135564845Y-101943947D01*
X135554402Y-101941149D01*
X135182036Y-101823742D01*
X135171873Y-101820043D01*
X134811165Y-101670633D01*
X134801361Y-101666061D01*
X134455057Y-101485786D01*
X134445689Y-101480378D01*
X134116397Y-101270596D01*
X134107536Y-101264391D01*
X133797790Y-101026715D01*
X133789503Y-101019761D01*
X133501653Y-100755995D01*
X133494004Y-100748346D01*
X133230238Y-100460496D01*
X133223284Y-100452209D01*
X132985608Y-100142463D01*
X132979403Y-100133602D01*
X132769621Y-99804310D01*
X132764213Y-99794942D01*
X132741078Y-99750500D01*
X132583935Y-99448631D01*
X132579366Y-99438833D01*
X132550438Y-99368995D01*
X145299499Y-99368995D01*
X145326418Y-99504322D01*
X145326421Y-99504332D01*
X145379221Y-99631804D01*
X145379228Y-99631817D01*
X145455885Y-99746541D01*
X145455888Y-99746545D01*
X145553454Y-99844111D01*
X145553458Y-99844114D01*
X145668182Y-99920771D01*
X145668195Y-99920778D01*
X145795667Y-99973578D01*
X145795672Y-99973580D01*
X145795676Y-99973580D01*
X145795677Y-99973581D01*
X145931004Y-100000500D01*
X145931007Y-100000500D01*
X146068995Y-100000500D01*
X146160041Y-99982389D01*
X146204328Y-99973580D01*
X146331811Y-99920775D01*
X146446542Y-99844114D01*
X146544114Y-99746542D01*
X146620775Y-99631811D01*
X146673580Y-99504328D01*
X146700500Y-99368995D01*
X148299499Y-99368995D01*
X148326418Y-99504322D01*
X148326421Y-99504332D01*
X148379221Y-99631804D01*
X148379228Y-99631817D01*
X148455885Y-99746541D01*
X148455888Y-99746545D01*
X148553454Y-99844111D01*
X148553458Y-99844114D01*
X148668182Y-99920771D01*
X148668195Y-99920778D01*
X148795667Y-99973578D01*
X148795672Y-99973580D01*
X148795676Y-99973580D01*
X148795677Y-99973581D01*
X148931004Y-100000500D01*
X148931007Y-100000500D01*
X149068995Y-100000500D01*
X149160041Y-99982389D01*
X149204328Y-99973580D01*
X149331811Y-99920775D01*
X149446542Y-99844114D01*
X149544114Y-99746542D01*
X149620775Y-99631811D01*
X149673580Y-99504328D01*
X149700500Y-99368993D01*
X149700500Y-99231007D01*
X149700500Y-99231004D01*
X149694367Y-99200173D01*
X149694367Y-99200172D01*
X149691172Y-99184108D01*
X156749500Y-99184108D01*
X156749500Y-99315891D01*
X156783608Y-99443187D01*
X156812476Y-99493186D01*
X156849500Y-99557314D01*
X156942686Y-99650500D01*
X157056814Y-99716392D01*
X157184108Y-99750500D01*
X157184110Y-99750500D01*
X157315890Y-99750500D01*
X157315892Y-99750500D01*
X157443186Y-99716392D01*
X157557314Y-99650500D01*
X157650500Y-99557314D01*
X157716392Y-99443186D01*
X157750500Y-99315892D01*
X157750500Y-99234108D01*
X159999500Y-99234108D01*
X159999500Y-99365892D01*
X160016554Y-99429539D01*
X160033608Y-99493187D01*
X160040043Y-99504332D01*
X160099500Y-99607314D01*
X160192686Y-99700500D01*
X160306814Y-99766392D01*
X160434108Y-99800500D01*
X160434110Y-99800500D01*
X160565890Y-99800500D01*
X160565892Y-99800500D01*
X160693186Y-99766392D01*
X160807314Y-99700500D01*
X160900500Y-99607314D01*
X160966392Y-99493186D01*
X161000500Y-99365892D01*
X161000500Y-99234108D01*
X160966392Y-99106814D01*
X160900500Y-98992686D01*
X160807314Y-98899500D01*
X160742118Y-98861859D01*
X160693187Y-98833608D01*
X160629539Y-98816554D01*
X160565892Y-98799500D01*
X160434108Y-98799500D01*
X160306812Y-98833608D01*
X160192686Y-98899500D01*
X160192683Y-98899502D01*
X160099502Y-98992683D01*
X160099500Y-98992686D01*
X160033608Y-99106812D01*
X160012897Y-99184108D01*
X159999500Y-99234108D01*
X157750500Y-99234108D01*
X157750500Y-99184108D01*
X157716392Y-99056814D01*
X157650500Y-98942686D01*
X157557314Y-98849500D01*
X157470712Y-98799500D01*
X157443187Y-98783608D01*
X157379539Y-98766554D01*
X157315892Y-98749500D01*
X157184108Y-98749500D01*
X157056812Y-98783608D01*
X156942686Y-98849500D01*
X156942683Y-98849502D01*
X156849502Y-98942683D01*
X156849500Y-98942686D01*
X156783608Y-99056812D01*
X156749500Y-99184108D01*
X149691172Y-99184108D01*
X149673581Y-99095679D01*
X149673581Y-99095677D01*
X149673580Y-99095672D01*
X149651463Y-99042276D01*
X149620778Y-98968195D01*
X149620771Y-98968182D01*
X149544114Y-98853458D01*
X149544111Y-98853454D01*
X149446545Y-98755888D01*
X149446541Y-98755885D01*
X149331817Y-98679228D01*
X149331804Y-98679221D01*
X149204332Y-98626421D01*
X149204322Y-98626418D01*
X149068995Y-98599500D01*
X149068993Y-98599500D01*
X148931007Y-98599500D01*
X148931005Y-98599500D01*
X148795677Y-98626418D01*
X148795667Y-98626421D01*
X148668195Y-98679221D01*
X148668182Y-98679228D01*
X148553458Y-98755885D01*
X148553454Y-98755888D01*
X148455888Y-98853454D01*
X148455885Y-98853458D01*
X148379228Y-98968182D01*
X148379221Y-98968195D01*
X148326421Y-99095667D01*
X148326418Y-99095677D01*
X148299500Y-99231004D01*
X148299500Y-99231007D01*
X148299500Y-99368993D01*
X148299500Y-99368995D01*
X148299499Y-99368995D01*
X146700500Y-99368995D01*
X146700500Y-99368993D01*
X146700500Y-99231007D01*
X146700500Y-99231004D01*
X146673581Y-99095677D01*
X146673580Y-99095676D01*
X146673580Y-99095672D01*
X146651463Y-99042276D01*
X146620778Y-98968195D01*
X146620771Y-98968182D01*
X146544114Y-98853458D01*
X146544111Y-98853454D01*
X146446545Y-98755888D01*
X146446541Y-98755885D01*
X146331817Y-98679228D01*
X146331804Y-98679221D01*
X146204332Y-98626421D01*
X146204322Y-98626418D01*
X146068995Y-98599500D01*
X146068993Y-98599500D01*
X145931007Y-98599500D01*
X145931005Y-98599500D01*
X145795677Y-98626418D01*
X145795667Y-98626421D01*
X145668195Y-98679221D01*
X145668182Y-98679228D01*
X145553458Y-98755885D01*
X145553454Y-98755888D01*
X145455888Y-98853454D01*
X145455885Y-98853458D01*
X145379228Y-98968182D01*
X145379221Y-98968195D01*
X145326421Y-99095667D01*
X145326418Y-99095677D01*
X145299500Y-99231004D01*
X145299500Y-99231007D01*
X145299500Y-99368993D01*
X145299500Y-99368995D01*
X145299499Y-99368995D01*
X132550438Y-99368995D01*
X132510414Y-99272368D01*
X132493282Y-99231007D01*
X132429950Y-99078111D01*
X132426261Y-99067976D01*
X132308847Y-98695587D01*
X132306056Y-98685170D01*
X132221544Y-98303963D01*
X132219671Y-98293339D01*
X132168706Y-97906220D01*
X132167766Y-97895485D01*
X132156947Y-97647682D01*
X139200000Y-97647682D01*
X139200000Y-97852317D01*
X139232009Y-98054417D01*
X139295244Y-98249031D01*
X139388141Y-98431350D01*
X139388147Y-98431359D01*
X139420523Y-98475921D01*
X139420524Y-98475922D01*
X140100000Y-97796446D01*
X140100000Y-97802661D01*
X140127259Y-97904394D01*
X140179920Y-97995606D01*
X140254394Y-98070080D01*
X140345606Y-98122741D01*
X140447339Y-98150000D01*
X140453553Y-98150000D01*
X139774076Y-98829474D01*
X139818650Y-98861859D01*
X140000968Y-98954755D01*
X140195582Y-99017990D01*
X140397683Y-99050000D01*
X140602317Y-99050000D01*
X140804417Y-99017990D01*
X140999031Y-98954755D01*
X141181349Y-98861859D01*
X141225921Y-98829474D01*
X140546447Y-98150000D01*
X140552661Y-98150000D01*
X140654394Y-98122741D01*
X140745606Y-98070080D01*
X140820080Y-97995606D01*
X140872741Y-97904394D01*
X140900000Y-97802661D01*
X140900000Y-97796447D01*
X141579474Y-98475921D01*
X141611859Y-98431349D01*
X141704755Y-98249031D01*
X141767990Y-98054417D01*
X141800000Y-97852317D01*
X141800000Y-97647682D01*
X141767990Y-97445582D01*
X141704755Y-97250968D01*
X141640603Y-97125062D01*
X152248915Y-97125062D01*
X152275834Y-97260389D01*
X152275837Y-97260399D01*
X152328637Y-97387871D01*
X152328644Y-97387884D01*
X152405301Y-97502608D01*
X152405304Y-97502612D01*
X152502870Y-97600178D01*
X152502874Y-97600181D01*
X152617598Y-97676838D01*
X152617611Y-97676845D01*
X152729924Y-97723366D01*
X152745088Y-97729647D01*
X152745092Y-97729647D01*
X152745093Y-97729648D01*
X152880420Y-97756567D01*
X152880423Y-97756567D01*
X153018411Y-97756567D01*
X153109457Y-97738456D01*
X153153744Y-97729647D01*
X153281227Y-97676842D01*
X153345183Y-97634108D01*
X156749500Y-97634108D01*
X156749500Y-97765891D01*
X156783608Y-97893187D01*
X156791146Y-97906243D01*
X156849500Y-98007314D01*
X156942686Y-98100500D01*
X157056814Y-98166392D01*
X157184108Y-98200500D01*
X157184110Y-98200500D01*
X157315890Y-98200500D01*
X157315892Y-98200500D01*
X157443186Y-98166392D01*
X157557314Y-98100500D01*
X157650500Y-98007314D01*
X157716392Y-97893186D01*
X157750500Y-97765892D01*
X157750500Y-97634108D01*
X157716392Y-97506814D01*
X157650500Y-97392686D01*
X157557314Y-97299500D01*
X157489589Y-97260399D01*
X157443187Y-97233608D01*
X157379539Y-97216554D01*
X157315892Y-97199500D01*
X157184108Y-97199500D01*
X157056812Y-97233608D01*
X156942686Y-97299500D01*
X156942683Y-97299502D01*
X156849502Y-97392683D01*
X156849500Y-97392686D01*
X156783608Y-97506812D01*
X156749500Y-97634108D01*
X153345183Y-97634108D01*
X153395958Y-97600181D01*
X153400533Y-97595606D01*
X153457840Y-97538300D01*
X153493527Y-97502612D01*
X153493530Y-97502609D01*
X153570191Y-97387878D01*
X153622996Y-97260395D01*
X153649916Y-97125060D01*
X153649916Y-96987074D01*
X153649916Y-96987071D01*
X153642576Y-96950173D01*
X153642576Y-96950172D01*
X153639381Y-96934108D01*
X154749500Y-96934108D01*
X154749500Y-97065892D01*
X154750239Y-97068649D01*
X154783608Y-97193187D01*
X154787253Y-97199500D01*
X154849500Y-97307314D01*
X154942686Y-97400500D01*
X155056814Y-97466392D01*
X155184108Y-97500500D01*
X155184110Y-97500500D01*
X155315890Y-97500500D01*
X155315892Y-97500500D01*
X155443186Y-97466392D01*
X155557314Y-97400500D01*
X155650500Y-97307314D01*
X155716392Y-97193186D01*
X155750500Y-97065892D01*
X155750500Y-96934108D01*
X155716392Y-96806814D01*
X155650500Y-96692686D01*
X155557314Y-96599500D01*
X155500250Y-96566554D01*
X155443187Y-96533608D01*
X155362375Y-96511955D01*
X155315892Y-96499500D01*
X155184108Y-96499500D01*
X155056812Y-96533608D01*
X154942686Y-96599500D01*
X154942683Y-96599502D01*
X154849502Y-96692683D01*
X154849500Y-96692686D01*
X154783608Y-96806812D01*
X154749500Y-96934108D01*
X153639381Y-96934108D01*
X153622997Y-96851746D01*
X153622997Y-96851744D01*
X153622996Y-96851739D01*
X153604387Y-96806812D01*
X153570194Y-96724262D01*
X153570187Y-96724249D01*
X153493530Y-96609525D01*
X153493527Y-96609521D01*
X153395961Y-96511955D01*
X153395953Y-96511949D01*
X153394867Y-96511223D01*
X153394426Y-96510695D01*
X153391250Y-96508089D01*
X153391744Y-96507486D01*
X153350064Y-96457609D01*
X153341359Y-96388284D01*
X153356375Y-96346125D01*
X153415808Y-96243185D01*
X153449916Y-96115891D01*
X153449916Y-95984107D01*
X153415808Y-95856813D01*
X153414337Y-95854266D01*
X153406979Y-95841520D01*
X153349916Y-95742685D01*
X153256730Y-95649499D01*
X153199666Y-95616553D01*
X153142603Y-95583607D01*
X153078955Y-95566553D01*
X153015308Y-95549499D01*
X152883524Y-95549499D01*
X152756228Y-95583607D01*
X152642102Y-95649499D01*
X152642099Y-95649501D01*
X152548918Y-95742682D01*
X152548916Y-95742685D01*
X152483024Y-95856811D01*
X152448916Y-95984107D01*
X152448916Y-96115890D01*
X152483024Y-96243186D01*
X152487247Y-96250500D01*
X152542456Y-96346124D01*
X152558929Y-96414024D01*
X152536077Y-96480051D01*
X152507410Y-96507879D01*
X152507582Y-96508089D01*
X152505080Y-96510141D01*
X152503972Y-96511218D01*
X152502879Y-96511948D01*
X152502870Y-96511955D01*
X152405304Y-96609521D01*
X152405301Y-96609525D01*
X152328644Y-96724249D01*
X152328637Y-96724262D01*
X152275837Y-96851734D01*
X152275834Y-96851744D01*
X152248916Y-96987071D01*
X152248916Y-96987074D01*
X152248916Y-97125060D01*
X152248916Y-97125062D01*
X152248915Y-97125062D01*
X141640603Y-97125062D01*
X141611859Y-97068649D01*
X141601120Y-97053869D01*
X141601119Y-97053868D01*
X141579474Y-97024077D01*
X141579474Y-97024076D01*
X140900000Y-97703551D01*
X140900000Y-97697339D01*
X140872741Y-97595606D01*
X140820080Y-97504394D01*
X140745606Y-97429920D01*
X140654394Y-97377259D01*
X140552661Y-97350000D01*
X140546446Y-97350000D01*
X141225922Y-96670524D01*
X141225921Y-96670523D01*
X141181359Y-96638147D01*
X141181350Y-96638141D01*
X140999031Y-96545244D01*
X140836490Y-96492431D01*
X140778815Y-96452993D01*
X140751617Y-96388634D01*
X140763532Y-96319788D01*
X140810776Y-96268312D01*
X140874809Y-96250500D01*
X141104270Y-96250500D01*
X141134699Y-96247646D01*
X141134701Y-96247646D01*
X141198790Y-96225219D01*
X141262882Y-96202793D01*
X141372150Y-96122150D01*
X141452793Y-96012882D01*
X141475219Y-95948790D01*
X141497646Y-95884701D01*
X141497646Y-95884699D01*
X141500500Y-95854269D01*
X141500500Y-94645730D01*
X141497646Y-94615300D01*
X141497646Y-94615298D01*
X141464006Y-94519163D01*
X141452793Y-94487118D01*
X141372150Y-94377850D01*
X141292404Y-94318995D01*
X145299499Y-94318995D01*
X145326418Y-94454322D01*
X145326421Y-94454332D01*
X145379221Y-94581804D01*
X145379228Y-94581817D01*
X145455885Y-94696541D01*
X145455888Y-94696545D01*
X145553454Y-94794111D01*
X145553458Y-94794114D01*
X145668182Y-94870771D01*
X145668195Y-94870778D01*
X145795667Y-94923578D01*
X145795672Y-94923580D01*
X145795676Y-94923580D01*
X145795677Y-94923581D01*
X145931004Y-94950500D01*
X145931007Y-94950500D01*
X146068995Y-94950500D01*
X146151401Y-94934108D01*
X154749500Y-94934108D01*
X154749500Y-95065892D01*
X154764205Y-95120771D01*
X154783608Y-95193187D01*
X154790043Y-95204332D01*
X154849500Y-95307314D01*
X154942686Y-95400500D01*
X155056814Y-95466392D01*
X155184108Y-95500500D01*
X155184110Y-95500500D01*
X155315890Y-95500500D01*
X155315892Y-95500500D01*
X155443186Y-95466392D01*
X155557314Y-95400500D01*
X155650500Y-95307314D01*
X155716392Y-95193186D01*
X155749669Y-95068995D01*
X163799499Y-95068995D01*
X163826418Y-95204322D01*
X163826421Y-95204332D01*
X163879221Y-95331804D01*
X163879228Y-95331817D01*
X163955885Y-95446541D01*
X163955888Y-95446545D01*
X164053454Y-95544111D01*
X164053458Y-95544114D01*
X164168182Y-95620771D01*
X164168195Y-95620778D01*
X164295667Y-95673578D01*
X164295672Y-95673580D01*
X164295676Y-95673580D01*
X164295677Y-95673581D01*
X164431004Y-95700500D01*
X164431007Y-95700500D01*
X164568995Y-95700500D01*
X164660041Y-95682389D01*
X164704328Y-95673580D01*
X164831811Y-95620775D01*
X164946542Y-95544114D01*
X165044114Y-95446542D01*
X165120775Y-95331811D01*
X165173580Y-95204328D01*
X165200500Y-95068993D01*
X165200500Y-94931007D01*
X165200500Y-94931004D01*
X165173581Y-94795677D01*
X165173580Y-94795676D01*
X165173580Y-94795672D01*
X165161452Y-94766392D01*
X165120778Y-94668195D01*
X165120771Y-94668182D01*
X165044114Y-94553458D01*
X165044111Y-94553454D01*
X164946545Y-94455888D01*
X164946541Y-94455885D01*
X164831817Y-94379228D01*
X164831804Y-94379221D01*
X164704332Y-94326421D01*
X164704322Y-94326418D01*
X164568995Y-94299500D01*
X164568993Y-94299500D01*
X164431007Y-94299500D01*
X164431005Y-94299500D01*
X164295677Y-94326418D01*
X164295667Y-94326421D01*
X164168195Y-94379221D01*
X164168182Y-94379228D01*
X164053458Y-94455885D01*
X164053454Y-94455888D01*
X163955888Y-94553454D01*
X163955885Y-94553458D01*
X163879228Y-94668182D01*
X163879221Y-94668195D01*
X163826421Y-94795667D01*
X163826418Y-94795677D01*
X163799500Y-94931004D01*
X163799500Y-94931007D01*
X163799500Y-95068993D01*
X163799500Y-95068995D01*
X163799499Y-95068995D01*
X155749669Y-95068995D01*
X155750500Y-95065892D01*
X155750500Y-94934108D01*
X155716392Y-94806814D01*
X155650500Y-94692686D01*
X155557314Y-94599500D01*
X155500250Y-94566554D01*
X155443187Y-94533608D01*
X155379539Y-94516554D01*
X155315892Y-94499500D01*
X155184108Y-94499500D01*
X155056812Y-94533608D01*
X154942686Y-94599500D01*
X154942683Y-94599502D01*
X154849502Y-94692683D01*
X154849500Y-94692686D01*
X154783608Y-94806812D01*
X154766471Y-94870771D01*
X154749500Y-94934108D01*
X146151401Y-94934108D01*
X146167005Y-94931004D01*
X146204328Y-94923580D01*
X146331811Y-94870775D01*
X146390125Y-94831811D01*
X146403493Y-94822879D01*
X146427538Y-94806812D01*
X146446542Y-94794114D01*
X146544114Y-94696542D01*
X146620775Y-94581811D01*
X146673580Y-94454328D01*
X146682389Y-94410041D01*
X146700500Y-94318995D01*
X146700500Y-94184108D01*
X148499500Y-94184108D01*
X148499500Y-94315892D01*
X148502321Y-94326420D01*
X148533608Y-94443187D01*
X148558972Y-94487117D01*
X148599500Y-94557314D01*
X148692686Y-94650500D01*
X148806814Y-94716392D01*
X148934108Y-94750500D01*
X148934110Y-94750500D01*
X149065890Y-94750500D01*
X149065892Y-94750500D01*
X149193186Y-94716392D01*
X149307314Y-94650500D01*
X149400500Y-94557314D01*
X149466392Y-94443186D01*
X149500500Y-94315892D01*
X149500500Y-94184108D01*
X156999500Y-94184108D01*
X156999500Y-94315892D01*
X157002321Y-94326420D01*
X157033608Y-94443187D01*
X157058972Y-94487117D01*
X157099500Y-94557314D01*
X157192686Y-94650500D01*
X157306814Y-94716392D01*
X157434108Y-94750500D01*
X157434110Y-94750500D01*
X157565890Y-94750500D01*
X157565892Y-94750500D01*
X157693186Y-94716392D01*
X157807314Y-94650500D01*
X157900500Y-94557314D01*
X157966392Y-94443186D01*
X158000500Y-94315892D01*
X158000500Y-94234108D01*
X159999500Y-94234108D01*
X159999500Y-94365892D01*
X160016554Y-94429539D01*
X160033608Y-94493187D01*
X160037253Y-94499500D01*
X160099500Y-94607314D01*
X160192686Y-94700500D01*
X160306814Y-94766392D01*
X160434108Y-94800500D01*
X160434110Y-94800500D01*
X160565890Y-94800500D01*
X160565892Y-94800500D01*
X160693186Y-94766392D01*
X160807314Y-94700500D01*
X160900500Y-94607314D01*
X160966392Y-94493186D01*
X161000500Y-94365892D01*
X161000500Y-94234108D01*
X160966392Y-94106814D01*
X160900500Y-93992686D01*
X160807314Y-93899500D01*
X160750250Y-93866554D01*
X160693187Y-93833608D01*
X160629539Y-93816554D01*
X160565892Y-93799500D01*
X160434108Y-93799500D01*
X160306812Y-93833608D01*
X160192686Y-93899500D01*
X160192683Y-93899502D01*
X160099502Y-93992683D01*
X160099500Y-93992686D01*
X160033608Y-94106812D01*
X160017161Y-94168195D01*
X159999500Y-94234108D01*
X158000500Y-94234108D01*
X158000500Y-94184108D01*
X157966392Y-94056814D01*
X157964454Y-94053458D01*
X157957563Y-94041521D01*
X157900500Y-93942686D01*
X157807314Y-93849500D01*
X157750250Y-93816554D01*
X157693187Y-93783608D01*
X157629539Y-93766554D01*
X157565892Y-93749500D01*
X157434108Y-93749500D01*
X157306812Y-93783608D01*
X157192686Y-93849500D01*
X157192683Y-93849502D01*
X157099502Y-93942683D01*
X157099500Y-93942686D01*
X157033608Y-94056812D01*
X157003767Y-94168182D01*
X156999500Y-94184108D01*
X149500500Y-94184108D01*
X149466392Y-94056814D01*
X149464454Y-94053458D01*
X149457563Y-94041521D01*
X149400500Y-93942686D01*
X149307314Y-93849500D01*
X149250250Y-93816554D01*
X149193187Y-93783608D01*
X149129539Y-93766554D01*
X149065892Y-93749500D01*
X148934108Y-93749500D01*
X148806812Y-93783608D01*
X148692686Y-93849500D01*
X148692683Y-93849502D01*
X148599502Y-93942683D01*
X148599500Y-93942686D01*
X148533608Y-94056812D01*
X148503767Y-94168182D01*
X148499500Y-94184108D01*
X146700500Y-94184108D01*
X146700500Y-94181004D01*
X146673581Y-94045677D01*
X146673580Y-94045676D01*
X146673580Y-94045672D01*
X146651633Y-93992686D01*
X146620778Y-93918195D01*
X146620771Y-93918182D01*
X146544114Y-93803458D01*
X146544111Y-93803454D01*
X146446545Y-93705888D01*
X146446541Y-93705885D01*
X146331817Y-93629228D01*
X146331804Y-93629221D01*
X146204332Y-93576421D01*
X146204322Y-93576418D01*
X146068995Y-93549500D01*
X146068993Y-93549500D01*
X145931007Y-93549500D01*
X145931005Y-93549500D01*
X145795677Y-93576418D01*
X145795667Y-93576421D01*
X145668195Y-93629221D01*
X145668182Y-93629228D01*
X145553458Y-93705885D01*
X145553454Y-93705888D01*
X145455888Y-93803454D01*
X145455885Y-93803458D01*
X145379228Y-93918182D01*
X145379221Y-93918195D01*
X145326421Y-94045667D01*
X145326418Y-94045677D01*
X145299500Y-94181004D01*
X145299500Y-94181007D01*
X145299500Y-94318993D01*
X145299500Y-94318995D01*
X145299499Y-94318995D01*
X141292404Y-94318995D01*
X141262882Y-94297207D01*
X141262880Y-94297206D01*
X141247875Y-94291956D01*
X141134700Y-94252353D01*
X141104270Y-94249500D01*
X141104266Y-94249500D01*
X139895734Y-94249500D01*
X139895730Y-94249500D01*
X139865300Y-94252353D01*
X139865298Y-94252353D01*
X139737119Y-94297206D01*
X139737117Y-94297207D01*
X139627850Y-94377850D01*
X139547207Y-94487117D01*
X139547206Y-94487119D01*
X139502353Y-94615298D01*
X139502353Y-94615300D01*
X139499500Y-94645730D01*
X139499500Y-95854269D01*
X139502353Y-95884699D01*
X139502353Y-95884701D01*
X139547206Y-96012880D01*
X139547207Y-96012882D01*
X139627850Y-96122150D01*
X139737118Y-96202793D01*
X139779845Y-96217744D01*
X139865299Y-96247646D01*
X139895730Y-96250500D01*
X140125191Y-96250500D01*
X140192230Y-96270185D01*
X140237985Y-96322989D01*
X140247929Y-96392147D01*
X140218904Y-96455703D01*
X140163510Y-96492431D01*
X140000968Y-96545244D01*
X139818644Y-96638143D01*
X139774077Y-96670523D01*
X139774077Y-96670524D01*
X140453554Y-97350000D01*
X140447339Y-97350000D01*
X140345606Y-97377259D01*
X140254394Y-97429920D01*
X140179920Y-97504394D01*
X140127259Y-97595606D01*
X140100000Y-97697339D01*
X140100000Y-97703553D01*
X139420524Y-97024077D01*
X139420523Y-97024077D01*
X139388143Y-97068644D01*
X139295244Y-97250968D01*
X139232009Y-97445582D01*
X139200000Y-97647682D01*
X132156947Y-97647682D01*
X132151587Y-97524902D01*
X132150618Y-97502701D01*
X132150500Y-97497293D01*
X132150500Y-94568995D01*
X132799499Y-94568995D01*
X132826418Y-94704322D01*
X132826421Y-94704332D01*
X132879221Y-94831804D01*
X132879228Y-94831817D01*
X132955885Y-94946541D01*
X132955888Y-94946545D01*
X133053454Y-95044111D01*
X133053458Y-95044114D01*
X133168182Y-95120771D01*
X133168195Y-95120778D01*
X133295667Y-95173578D01*
X133295672Y-95173580D01*
X133295676Y-95173580D01*
X133295677Y-95173581D01*
X133431004Y-95200500D01*
X133431007Y-95200500D01*
X133568995Y-95200500D01*
X133660041Y-95182389D01*
X133704328Y-95173580D01*
X133831811Y-95120775D01*
X133946542Y-95044114D01*
X134044114Y-94946542D01*
X134120775Y-94831811D01*
X134173580Y-94704328D01*
X134192877Y-94607316D01*
X134200500Y-94568995D01*
X134200500Y-94431004D01*
X134173581Y-94295677D01*
X134173580Y-94295676D01*
X134173580Y-94295672D01*
X134154455Y-94249500D01*
X134120778Y-94168195D01*
X134120771Y-94168182D01*
X134044114Y-94053458D01*
X134044111Y-94053454D01*
X133946545Y-93955888D01*
X133946541Y-93955885D01*
X133831817Y-93879228D01*
X133831804Y-93879221D01*
X133704332Y-93826421D01*
X133704322Y-93826418D01*
X133568995Y-93799500D01*
X133568993Y-93799500D01*
X133431007Y-93799500D01*
X133431005Y-93799500D01*
X133295677Y-93826418D01*
X133295667Y-93826421D01*
X133168195Y-93879221D01*
X133168182Y-93879228D01*
X133053458Y-93955885D01*
X133053454Y-93955888D01*
X132955888Y-94053454D01*
X132955885Y-94053458D01*
X132879228Y-94168182D01*
X132879221Y-94168195D01*
X132826421Y-94295667D01*
X132826418Y-94295677D01*
X132799500Y-94431004D01*
X132799500Y-94431007D01*
X132799500Y-94568993D01*
X132799500Y-94568995D01*
X132799499Y-94568995D01*
X132150500Y-94568995D01*
X132150500Y-92068995D01*
X134799499Y-92068995D01*
X134826418Y-92204322D01*
X134826421Y-92204332D01*
X134879221Y-92331804D01*
X134879228Y-92331817D01*
X134955885Y-92446541D01*
X134955888Y-92446545D01*
X135053454Y-92544111D01*
X135053458Y-92544114D01*
X135168182Y-92620771D01*
X135168195Y-92620778D01*
X135295667Y-92673578D01*
X135295672Y-92673580D01*
X135295676Y-92673580D01*
X135295677Y-92673581D01*
X135431004Y-92700500D01*
X135431007Y-92700500D01*
X135568995Y-92700500D01*
X135660041Y-92682389D01*
X135704328Y-92673580D01*
X135831811Y-92620775D01*
X135946542Y-92544114D01*
X136044114Y-92446542D01*
X136120775Y-92331811D01*
X136173580Y-92204328D01*
X136200500Y-92068995D01*
X137799499Y-92068995D01*
X137826418Y-92204322D01*
X137826421Y-92204332D01*
X137879221Y-92331804D01*
X137879228Y-92331817D01*
X137955885Y-92446541D01*
X137955888Y-92446545D01*
X138053454Y-92544111D01*
X138053458Y-92544114D01*
X138168182Y-92620771D01*
X138168195Y-92620778D01*
X138295667Y-92673578D01*
X138295672Y-92673580D01*
X138295676Y-92673580D01*
X138295677Y-92673581D01*
X138431004Y-92700500D01*
X138431007Y-92700500D01*
X138568995Y-92700500D01*
X138651399Y-92684108D01*
X148499500Y-92684108D01*
X148499500Y-92815891D01*
X148533608Y-92943187D01*
X148566554Y-93000250D01*
X148599500Y-93057314D01*
X148692686Y-93150500D01*
X148806814Y-93216392D01*
X148934108Y-93250500D01*
X148934110Y-93250500D01*
X149065890Y-93250500D01*
X149065892Y-93250500D01*
X149193186Y-93216392D01*
X149307314Y-93150500D01*
X149400500Y-93057314D01*
X149466392Y-92943186D01*
X149500500Y-92815892D01*
X149500500Y-92684108D01*
X149466392Y-92556814D01*
X149400500Y-92442686D01*
X149307314Y-92349500D01*
X149250250Y-92316554D01*
X149193187Y-92283608D01*
X149129539Y-92266554D01*
X149065892Y-92249500D01*
X148934108Y-92249500D01*
X148806812Y-92283608D01*
X148692686Y-92349500D01*
X148692683Y-92349502D01*
X148599502Y-92442683D01*
X148599500Y-92442686D01*
X148533608Y-92556812D01*
X148499500Y-92684108D01*
X138651399Y-92684108D01*
X138660041Y-92682389D01*
X138704328Y-92673580D01*
X138831811Y-92620775D01*
X138831817Y-92620771D01*
X138903493Y-92572879D01*
X138927538Y-92556812D01*
X138946542Y-92544114D01*
X139044114Y-92446542D01*
X139120775Y-92331811D01*
X139173580Y-92204328D01*
X139200500Y-92068993D01*
X139200500Y-91931007D01*
X139200500Y-91931004D01*
X139173581Y-91795677D01*
X139173580Y-91795676D01*
X139173580Y-91795672D01*
X139173578Y-91795667D01*
X139120778Y-91668195D01*
X139120771Y-91668182D01*
X139044114Y-91553458D01*
X139044111Y-91553454D01*
X138946545Y-91455888D01*
X138946541Y-91455885D01*
X138831817Y-91379228D01*
X138831804Y-91379221D01*
X138704332Y-91326421D01*
X138704322Y-91326418D01*
X138568995Y-91299500D01*
X138568993Y-91299500D01*
X138431007Y-91299500D01*
X138431005Y-91299500D01*
X138295677Y-91326418D01*
X138295667Y-91326421D01*
X138168195Y-91379221D01*
X138168182Y-91379228D01*
X138053458Y-91455885D01*
X138053454Y-91455888D01*
X137955888Y-91553454D01*
X137955885Y-91553458D01*
X137879228Y-91668182D01*
X137879221Y-91668195D01*
X137826421Y-91795667D01*
X137826418Y-91795677D01*
X137799500Y-91931004D01*
X137799500Y-91931007D01*
X137799500Y-92068993D01*
X137799500Y-92068995D01*
X137799499Y-92068995D01*
X136200500Y-92068995D01*
X136200500Y-92068993D01*
X136200500Y-91931007D01*
X136200500Y-91931004D01*
X136173581Y-91795677D01*
X136173580Y-91795676D01*
X136173580Y-91795672D01*
X136173578Y-91795667D01*
X136120778Y-91668195D01*
X136120771Y-91668182D01*
X136044114Y-91553458D01*
X136044111Y-91553454D01*
X135946545Y-91455888D01*
X135946541Y-91455885D01*
X135831817Y-91379228D01*
X135831804Y-91379221D01*
X135704332Y-91326421D01*
X135704322Y-91326418D01*
X135568995Y-91299500D01*
X135568993Y-91299500D01*
X135431007Y-91299500D01*
X135431005Y-91299500D01*
X135295677Y-91326418D01*
X135295667Y-91326421D01*
X135168195Y-91379221D01*
X135168182Y-91379228D01*
X135053458Y-91455885D01*
X135053454Y-91455888D01*
X134955888Y-91553454D01*
X134955885Y-91553458D01*
X134879228Y-91668182D01*
X134879221Y-91668195D01*
X134826421Y-91795667D01*
X134826418Y-91795677D01*
X134799500Y-91931004D01*
X134799500Y-91931007D01*
X134799500Y-92068993D01*
X134799500Y-92068995D01*
X134799499Y-92068995D01*
X132150500Y-92068995D01*
X132150500Y-74752706D01*
X132150618Y-74747298D01*
X132158349Y-74570212D01*
X132167766Y-74354512D01*
X132168705Y-74343781D01*
X132219672Y-73956656D01*
X132221544Y-73946040D01*
X132291894Y-73628711D01*
X134149500Y-73628711D01*
X134149500Y-73871288D01*
X134181161Y-74111785D01*
X134243947Y-74346104D01*
X134247439Y-74354534D01*
X134336776Y-74570212D01*
X134458064Y-74780289D01*
X134458066Y-74780292D01*
X134458067Y-74780293D01*
X134605733Y-74972736D01*
X134605739Y-74972743D01*
X134777256Y-75144260D01*
X134777262Y-75144265D01*
X134969711Y-75291936D01*
X135179788Y-75413224D01*
X135403900Y-75506054D01*
X135638211Y-75568838D01*
X135818586Y-75592584D01*
X135878711Y-75600500D01*
X135878712Y-75600500D01*
X136121289Y-75600500D01*
X136169388Y-75594167D01*
X136361789Y-75568838D01*
X136596100Y-75506054D01*
X136820212Y-75413224D01*
X137030289Y-75291936D01*
X137222738Y-75144265D01*
X137394265Y-74972738D01*
X137541936Y-74780289D01*
X137663224Y-74570212D01*
X137756054Y-74346100D01*
X137818838Y-74111789D01*
X137850500Y-73871288D01*
X137850500Y-73628712D01*
X137850500Y-73628711D01*
X161649500Y-73628711D01*
X161649500Y-73871288D01*
X161681161Y-74111785D01*
X161743947Y-74346104D01*
X161747439Y-74354534D01*
X161836776Y-74570212D01*
X161958064Y-74780289D01*
X161958066Y-74780292D01*
X161958067Y-74780293D01*
X162105733Y-74972736D01*
X162105739Y-74972743D01*
X162277256Y-75144260D01*
X162277262Y-75144265D01*
X162469711Y-75291936D01*
X162679788Y-75413224D01*
X162903900Y-75506054D01*
X163138211Y-75568838D01*
X163318586Y-75592584D01*
X163378711Y-75600500D01*
X163378712Y-75600500D01*
X163621289Y-75600500D01*
X163669388Y-75594167D01*
X163861789Y-75568838D01*
X164096100Y-75506054D01*
X164320212Y-75413224D01*
X164530289Y-75291936D01*
X164722738Y-75144265D01*
X164894265Y-74972738D01*
X165041936Y-74780289D01*
X165163224Y-74570212D01*
X165256054Y-74346100D01*
X165318838Y-74111789D01*
X165350500Y-73871288D01*
X165350500Y-73628712D01*
X165318838Y-73388211D01*
X165256054Y-73153900D01*
X165163224Y-72929788D01*
X165041936Y-72719711D01*
X164894265Y-72527262D01*
X164894260Y-72527256D01*
X164722743Y-72355739D01*
X164722736Y-72355733D01*
X164530293Y-72208067D01*
X164530292Y-72208066D01*
X164530289Y-72208064D01*
X164320212Y-72086776D01*
X164320205Y-72086773D01*
X164096104Y-71993947D01*
X163861785Y-71931161D01*
X163621289Y-71899500D01*
X163621288Y-71899500D01*
X163378712Y-71899500D01*
X163378711Y-71899500D01*
X163138214Y-71931161D01*
X162903895Y-71993947D01*
X162679794Y-72086773D01*
X162679785Y-72086777D01*
X162469706Y-72208067D01*
X162277263Y-72355733D01*
X162277256Y-72355739D01*
X162105739Y-72527256D01*
X162105733Y-72527263D01*
X161958067Y-72719706D01*
X161836777Y-72929785D01*
X161836773Y-72929794D01*
X161743947Y-73153895D01*
X161681161Y-73388214D01*
X161649500Y-73628711D01*
X137850500Y-73628711D01*
X137818838Y-73388211D01*
X137756054Y-73153900D01*
X137663224Y-72929788D01*
X137556166Y-72744358D01*
X157169000Y-72744358D01*
X157169000Y-72876142D01*
X157183374Y-72929788D01*
X157203108Y-73003437D01*
X157236054Y-73060500D01*
X157269000Y-73117564D01*
X157362186Y-73210750D01*
X157476314Y-73276642D01*
X157603608Y-73310750D01*
X157603610Y-73310750D01*
X157735390Y-73310750D01*
X157735392Y-73310750D01*
X157862686Y-73276642D01*
X157976814Y-73210750D01*
X158070000Y-73117564D01*
X158135892Y-73003436D01*
X158170000Y-72876142D01*
X158170000Y-72744358D01*
X158135892Y-72617064D01*
X158070000Y-72502936D01*
X157976814Y-72409750D01*
X157918515Y-72376091D01*
X157862687Y-72343858D01*
X157799039Y-72326804D01*
X157735392Y-72309750D01*
X157603608Y-72309750D01*
X157476312Y-72343858D01*
X157362186Y-72409750D01*
X157362183Y-72409752D01*
X157269002Y-72502933D01*
X157269000Y-72502936D01*
X157203108Y-72617062D01*
X157175605Y-72719706D01*
X157169000Y-72744358D01*
X137556166Y-72744358D01*
X137541936Y-72719711D01*
X137394265Y-72527262D01*
X137394260Y-72527256D01*
X137222743Y-72355739D01*
X137222736Y-72355733D01*
X137030293Y-72208067D01*
X137030292Y-72208066D01*
X137030289Y-72208064D01*
X136820212Y-72086776D01*
X136820205Y-72086773D01*
X136596104Y-71993947D01*
X136361785Y-71931161D01*
X136121289Y-71899500D01*
X136121288Y-71899500D01*
X135878712Y-71899500D01*
X135878711Y-71899500D01*
X135638214Y-71931161D01*
X135403895Y-71993947D01*
X135179794Y-72086773D01*
X135179785Y-72086777D01*
X134969706Y-72208067D01*
X134777263Y-72355733D01*
X134777256Y-72355739D01*
X134605739Y-72527256D01*
X134605733Y-72527263D01*
X134458067Y-72719706D01*
X134336777Y-72929785D01*
X134336773Y-72929794D01*
X134243947Y-73153895D01*
X134181161Y-73388214D01*
X134149500Y-73628711D01*
X132291894Y-73628711D01*
X132306055Y-73564833D01*
X132308844Y-73554423D01*
X132426263Y-73182016D01*
X132429947Y-73171895D01*
X132579372Y-72811150D01*
X132583930Y-72801376D01*
X132764219Y-72455045D01*
X132769614Y-72445700D01*
X132979410Y-72116386D01*
X132985600Y-72107546D01*
X133223291Y-71797781D01*
X133230229Y-71789512D01*
X133494014Y-71501642D01*
X133501642Y-71494014D01*
X133789512Y-71230229D01*
X133797781Y-71223291D01*
X134107546Y-70985600D01*
X134116386Y-70979410D01*
X134445700Y-70769614D01*
X134455045Y-70764219D01*
X134801376Y-70583930D01*
X134811150Y-70579372D01*
X135171895Y-70429947D01*
X135182016Y-70426263D01*
X135554423Y-70308844D01*
X135564823Y-70306057D01*
X135946040Y-70221544D01*
X135956656Y-70219672D01*
X136343781Y-70168705D01*
X136354512Y-70167766D01*
X136734473Y-70151177D01*
X136747298Y-70150618D01*
X136752706Y-70150500D01*
X136807583Y-70150500D01*
X162692417Y-70150500D01*
X162747294Y-70150500D01*
X162752702Y-70150618D01*
G37*
%TD.AperFunction*%
%TD*%
M02*
