%TF.GenerationSoftware,KiCad,Pcbnew,10.0.5-1.fc44*%
%TF.CreationDate,2026-08-16T12:41:39-05:00*%
%TF.ProjectId,light_automation_module,6c696768-745f-4617-9574-6f6d6174696f,rev?*%
%TF.SameCoordinates,Original*%
%TF.FileFunction,Legend,Top*%
%TF.FilePolarity,Positive*%
%FSLAX46Y46*%
G04 Gerber Fmt 4.6, Leading zero omitted, Abs format (unit mm)*
G04 Created by KiCad (PCBNEW 10.0.5-1.fc44) date 2026-08-16 12:41:39*
%MOMM*%
%LPD*%
G01*
G04 APERTURE LIST*
%ADD10C,0.100000*%
%ADD11C,0.150000*%
%ADD12C,0.106680*%
%ADD13C,0.254000*%
%ADD14C,0.120000*%
%ADD15C,0.152400*%
%ADD16C,0.127000*%
%ADD17C,0.504000*%
%ADD18C,0.250000*%
%ADD19C,0.200000*%
G04 APERTURE END LIST*
D10*
X133166666Y-94457419D02*
X133166666Y-95171704D01*
X133166666Y-95171704D02*
X133119047Y-95314561D01*
X133119047Y-95314561D02*
X133023809Y-95409800D01*
X133023809Y-95409800D02*
X132880952Y-95457419D01*
X132880952Y-95457419D02*
X132785714Y-95457419D01*
X134166666Y-95457419D02*
X133595238Y-95457419D01*
X133880952Y-95457419D02*
X133880952Y-94457419D01*
X133880952Y-94457419D02*
X133785714Y-94600276D01*
X133785714Y-94600276D02*
X133690476Y-94695514D01*
X133690476Y-94695514D02*
X133595238Y-94743133D01*
D11*
X136416905Y-94577819D02*
X136416905Y-93577819D01*
X136416905Y-93577819D02*
X136655000Y-93577819D01*
X136655000Y-93577819D02*
X136797857Y-93625438D01*
X136797857Y-93625438D02*
X136893095Y-93720676D01*
X136893095Y-93720676D02*
X136940714Y-93815914D01*
X136940714Y-93815914D02*
X136988333Y-94006390D01*
X136988333Y-94006390D02*
X136988333Y-94149247D01*
X136988333Y-94149247D02*
X136940714Y-94339723D01*
X136940714Y-94339723D02*
X136893095Y-94434961D01*
X136893095Y-94434961D02*
X136797857Y-94530200D01*
X136797857Y-94530200D02*
X136655000Y-94577819D01*
X136655000Y-94577819D02*
X136416905Y-94577819D01*
X137940714Y-94577819D02*
X137369286Y-94577819D01*
X137655000Y-94577819D02*
X137655000Y-93577819D01*
X137655000Y-93577819D02*
X137559762Y-93720676D01*
X137559762Y-93720676D02*
X137464524Y-93815914D01*
X137464524Y-93815914D02*
X137369286Y-93863533D01*
X158903333Y-98884580D02*
X158855714Y-98932200D01*
X158855714Y-98932200D02*
X158712857Y-98979819D01*
X158712857Y-98979819D02*
X158617619Y-98979819D01*
X158617619Y-98979819D02*
X158474762Y-98932200D01*
X158474762Y-98932200D02*
X158379524Y-98836961D01*
X158379524Y-98836961D02*
X158331905Y-98741723D01*
X158331905Y-98741723D02*
X158284286Y-98551247D01*
X158284286Y-98551247D02*
X158284286Y-98408390D01*
X158284286Y-98408390D02*
X158331905Y-98217914D01*
X158331905Y-98217914D02*
X158379524Y-98122676D01*
X158379524Y-98122676D02*
X158474762Y-98027438D01*
X158474762Y-98027438D02*
X158617619Y-97979819D01*
X158617619Y-97979819D02*
X158712857Y-97979819D01*
X158712857Y-97979819D02*
X158855714Y-98027438D01*
X158855714Y-98027438D02*
X158903333Y-98075057D01*
X159474762Y-98408390D02*
X159379524Y-98360771D01*
X159379524Y-98360771D02*
X159331905Y-98313152D01*
X159331905Y-98313152D02*
X159284286Y-98217914D01*
X159284286Y-98217914D02*
X159284286Y-98170295D01*
X159284286Y-98170295D02*
X159331905Y-98075057D01*
X159331905Y-98075057D02*
X159379524Y-98027438D01*
X159379524Y-98027438D02*
X159474762Y-97979819D01*
X159474762Y-97979819D02*
X159665238Y-97979819D01*
X159665238Y-97979819D02*
X159760476Y-98027438D01*
X159760476Y-98027438D02*
X159808095Y-98075057D01*
X159808095Y-98075057D02*
X159855714Y-98170295D01*
X159855714Y-98170295D02*
X159855714Y-98217914D01*
X159855714Y-98217914D02*
X159808095Y-98313152D01*
X159808095Y-98313152D02*
X159760476Y-98360771D01*
X159760476Y-98360771D02*
X159665238Y-98408390D01*
X159665238Y-98408390D02*
X159474762Y-98408390D01*
X159474762Y-98408390D02*
X159379524Y-98456009D01*
X159379524Y-98456009D02*
X159331905Y-98503628D01*
X159331905Y-98503628D02*
X159284286Y-98598866D01*
X159284286Y-98598866D02*
X159284286Y-98789342D01*
X159284286Y-98789342D02*
X159331905Y-98884580D01*
X159331905Y-98884580D02*
X159379524Y-98932200D01*
X159379524Y-98932200D02*
X159474762Y-98979819D01*
X159474762Y-98979819D02*
X159665238Y-98979819D01*
X159665238Y-98979819D02*
X159760476Y-98932200D01*
X159760476Y-98932200D02*
X159808095Y-98884580D01*
X159808095Y-98884580D02*
X159855714Y-98789342D01*
X159855714Y-98789342D02*
X159855714Y-98598866D01*
X159855714Y-98598866D02*
X159808095Y-98503628D01*
X159808095Y-98503628D02*
X159760476Y-98456009D01*
X159760476Y-98456009D02*
X159665238Y-98408390D01*
X147403333Y-98884580D02*
X147355714Y-98932200D01*
X147355714Y-98932200D02*
X147212857Y-98979819D01*
X147212857Y-98979819D02*
X147117619Y-98979819D01*
X147117619Y-98979819D02*
X146974762Y-98932200D01*
X146974762Y-98932200D02*
X146879524Y-98836961D01*
X146879524Y-98836961D02*
X146831905Y-98741723D01*
X146831905Y-98741723D02*
X146784286Y-98551247D01*
X146784286Y-98551247D02*
X146784286Y-98408390D01*
X146784286Y-98408390D02*
X146831905Y-98217914D01*
X146831905Y-98217914D02*
X146879524Y-98122676D01*
X146879524Y-98122676D02*
X146974762Y-98027438D01*
X146974762Y-98027438D02*
X147117619Y-97979819D01*
X147117619Y-97979819D02*
X147212857Y-97979819D01*
X147212857Y-97979819D02*
X147355714Y-98027438D01*
X147355714Y-98027438D02*
X147403333Y-98075057D01*
X148260476Y-98313152D02*
X148260476Y-98979819D01*
X148022381Y-97932200D02*
X147784286Y-98646485D01*
X147784286Y-98646485D02*
X148403333Y-98646485D01*
X132760195Y-83609819D02*
X132760195Y-84419342D01*
X132760195Y-84419342D02*
X132807814Y-84514580D01*
X132807814Y-84514580D02*
X132855433Y-84562200D01*
X132855433Y-84562200D02*
X132950671Y-84609819D01*
X132950671Y-84609819D02*
X133141147Y-84609819D01*
X133141147Y-84609819D02*
X133236385Y-84562200D01*
X133236385Y-84562200D02*
X133284004Y-84514580D01*
X133284004Y-84514580D02*
X133331623Y-84419342D01*
X133331623Y-84419342D02*
X133331623Y-83609819D01*
X133712576Y-83609819D02*
X134331623Y-83609819D01*
X134331623Y-83609819D02*
X133998290Y-83990771D01*
X133998290Y-83990771D02*
X134141147Y-83990771D01*
X134141147Y-83990771D02*
X134236385Y-84038390D01*
X134236385Y-84038390D02*
X134284004Y-84086009D01*
X134284004Y-84086009D02*
X134331623Y-84181247D01*
X134331623Y-84181247D02*
X134331623Y-84419342D01*
X134331623Y-84419342D02*
X134284004Y-84514580D01*
X134284004Y-84514580D02*
X134236385Y-84562200D01*
X134236385Y-84562200D02*
X134141147Y-84609819D01*
X134141147Y-84609819D02*
X133855433Y-84609819D01*
X133855433Y-84609819D02*
X133760195Y-84562200D01*
X133760195Y-84562200D02*
X133712576Y-84514580D01*
X134754000Y-87115019D02*
X134754000Y-87353114D01*
X134515905Y-87257876D02*
X134754000Y-87353114D01*
X134754000Y-87353114D02*
X134992095Y-87257876D01*
X134611143Y-87543590D02*
X134754000Y-87353114D01*
X134754000Y-87353114D02*
X134896857Y-87543590D01*
X134753999Y-88205380D02*
X134753999Y-87967285D01*
X134992094Y-88062523D02*
X134753999Y-87967285D01*
X134753999Y-87967285D02*
X134515904Y-88062523D01*
X134896856Y-87776809D02*
X134753999Y-87967285D01*
X134753999Y-87967285D02*
X134611142Y-87776809D01*
D10*
X164166666Y-94957419D02*
X164166666Y-95671704D01*
X164166666Y-95671704D02*
X164119047Y-95814561D01*
X164119047Y-95814561D02*
X164023809Y-95909800D01*
X164023809Y-95909800D02*
X163880952Y-95957419D01*
X163880952Y-95957419D02*
X163785714Y-95957419D01*
X164595238Y-95052657D02*
X164642857Y-95005038D01*
X164642857Y-95005038D02*
X164738095Y-94957419D01*
X164738095Y-94957419D02*
X164976190Y-94957419D01*
X164976190Y-94957419D02*
X165071428Y-95005038D01*
X165071428Y-95005038D02*
X165119047Y-95052657D01*
X165119047Y-95052657D02*
X165166666Y-95147895D01*
X165166666Y-95147895D02*
X165166666Y-95243133D01*
X165166666Y-95243133D02*
X165119047Y-95385990D01*
X165119047Y-95385990D02*
X164547619Y-95957419D01*
X164547619Y-95957419D02*
X165166666Y-95957419D01*
D11*
X147403333Y-93917319D02*
X146927143Y-93917319D01*
X146927143Y-93917319D02*
X146927143Y-92917319D01*
X148260476Y-93917319D02*
X147689048Y-93917319D01*
X147974762Y-93917319D02*
X147974762Y-92917319D01*
X147974762Y-92917319D02*
X147879524Y-93060176D01*
X147879524Y-93060176D02*
X147784286Y-93155414D01*
X147784286Y-93155414D02*
X147689048Y-93203033D01*
X155903333Y-93834580D02*
X155855714Y-93882200D01*
X155855714Y-93882200D02*
X155712857Y-93929819D01*
X155712857Y-93929819D02*
X155617619Y-93929819D01*
X155617619Y-93929819D02*
X155474762Y-93882200D01*
X155474762Y-93882200D02*
X155379524Y-93786961D01*
X155379524Y-93786961D02*
X155331905Y-93691723D01*
X155331905Y-93691723D02*
X155284286Y-93501247D01*
X155284286Y-93501247D02*
X155284286Y-93358390D01*
X155284286Y-93358390D02*
X155331905Y-93167914D01*
X155331905Y-93167914D02*
X155379524Y-93072676D01*
X155379524Y-93072676D02*
X155474762Y-92977438D01*
X155474762Y-92977438D02*
X155617619Y-92929819D01*
X155617619Y-92929819D02*
X155712857Y-92929819D01*
X155712857Y-92929819D02*
X155855714Y-92977438D01*
X155855714Y-92977438D02*
X155903333Y-93025057D01*
X156760476Y-92929819D02*
X156570000Y-92929819D01*
X156570000Y-92929819D02*
X156474762Y-92977438D01*
X156474762Y-92977438D02*
X156427143Y-93025057D01*
X156427143Y-93025057D02*
X156331905Y-93167914D01*
X156331905Y-93167914D02*
X156284286Y-93358390D01*
X156284286Y-93358390D02*
X156284286Y-93739342D01*
X156284286Y-93739342D02*
X156331905Y-93834580D01*
X156331905Y-93834580D02*
X156379524Y-93882200D01*
X156379524Y-93882200D02*
X156474762Y-93929819D01*
X156474762Y-93929819D02*
X156665238Y-93929819D01*
X156665238Y-93929819D02*
X156760476Y-93882200D01*
X156760476Y-93882200D02*
X156808095Y-93834580D01*
X156808095Y-93834580D02*
X156855714Y-93739342D01*
X156855714Y-93739342D02*
X156855714Y-93501247D01*
X156855714Y-93501247D02*
X156808095Y-93406009D01*
X156808095Y-93406009D02*
X156760476Y-93358390D01*
X156760476Y-93358390D02*
X156665238Y-93310771D01*
X156665238Y-93310771D02*
X156474762Y-93310771D01*
X156474762Y-93310771D02*
X156379524Y-93358390D01*
X156379524Y-93358390D02*
X156331905Y-93406009D01*
X156331905Y-93406009D02*
X156284286Y-93501247D01*
X162258333Y-84699819D02*
X161925000Y-84223628D01*
X161686905Y-84699819D02*
X161686905Y-83699819D01*
X161686905Y-83699819D02*
X162067857Y-83699819D01*
X162067857Y-83699819D02*
X162163095Y-83747438D01*
X162163095Y-83747438D02*
X162210714Y-83795057D01*
X162210714Y-83795057D02*
X162258333Y-83890295D01*
X162258333Y-83890295D02*
X162258333Y-84033152D01*
X162258333Y-84033152D02*
X162210714Y-84128390D01*
X162210714Y-84128390D02*
X162163095Y-84176009D01*
X162163095Y-84176009D02*
X162067857Y-84223628D01*
X162067857Y-84223628D02*
X161686905Y-84223628D01*
X162639286Y-83795057D02*
X162686905Y-83747438D01*
X162686905Y-83747438D02*
X162782143Y-83699819D01*
X162782143Y-83699819D02*
X163020238Y-83699819D01*
X163020238Y-83699819D02*
X163115476Y-83747438D01*
X163115476Y-83747438D02*
X163163095Y-83795057D01*
X163163095Y-83795057D02*
X163210714Y-83890295D01*
X163210714Y-83890295D02*
X163210714Y-83985533D01*
X163210714Y-83985533D02*
X163163095Y-84128390D01*
X163163095Y-84128390D02*
X162591667Y-84699819D01*
X162591667Y-84699819D02*
X163210714Y-84699819D01*
X159903333Y-90129819D02*
X159570000Y-89653628D01*
X159331905Y-90129819D02*
X159331905Y-89129819D01*
X159331905Y-89129819D02*
X159712857Y-89129819D01*
X159712857Y-89129819D02*
X159808095Y-89177438D01*
X159808095Y-89177438D02*
X159855714Y-89225057D01*
X159855714Y-89225057D02*
X159903333Y-89320295D01*
X159903333Y-89320295D02*
X159903333Y-89463152D01*
X159903333Y-89463152D02*
X159855714Y-89558390D01*
X159855714Y-89558390D02*
X159808095Y-89606009D01*
X159808095Y-89606009D02*
X159712857Y-89653628D01*
X159712857Y-89653628D02*
X159331905Y-89653628D01*
X160855714Y-90129819D02*
X160284286Y-90129819D01*
X160570000Y-90129819D02*
X160570000Y-89129819D01*
X160570000Y-89129819D02*
X160474762Y-89272676D01*
X160474762Y-89272676D02*
X160379524Y-89367914D01*
X160379524Y-89367914D02*
X160284286Y-89415533D01*
X155653333Y-98834580D02*
X155605714Y-98882200D01*
X155605714Y-98882200D02*
X155462857Y-98929819D01*
X155462857Y-98929819D02*
X155367619Y-98929819D01*
X155367619Y-98929819D02*
X155224762Y-98882200D01*
X155224762Y-98882200D02*
X155129524Y-98786961D01*
X155129524Y-98786961D02*
X155081905Y-98691723D01*
X155081905Y-98691723D02*
X155034286Y-98501247D01*
X155034286Y-98501247D02*
X155034286Y-98358390D01*
X155034286Y-98358390D02*
X155081905Y-98167914D01*
X155081905Y-98167914D02*
X155129524Y-98072676D01*
X155129524Y-98072676D02*
X155224762Y-97977438D01*
X155224762Y-97977438D02*
X155367619Y-97929819D01*
X155367619Y-97929819D02*
X155462857Y-97929819D01*
X155462857Y-97929819D02*
X155605714Y-97977438D01*
X155605714Y-97977438D02*
X155653333Y-98025057D01*
X156558095Y-97929819D02*
X156081905Y-97929819D01*
X156081905Y-97929819D02*
X156034286Y-98406009D01*
X156034286Y-98406009D02*
X156081905Y-98358390D01*
X156081905Y-98358390D02*
X156177143Y-98310771D01*
X156177143Y-98310771D02*
X156415238Y-98310771D01*
X156415238Y-98310771D02*
X156510476Y-98358390D01*
X156510476Y-98358390D02*
X156558095Y-98406009D01*
X156558095Y-98406009D02*
X156605714Y-98501247D01*
X156605714Y-98501247D02*
X156605714Y-98739342D01*
X156605714Y-98739342D02*
X156558095Y-98834580D01*
X156558095Y-98834580D02*
X156510476Y-98882200D01*
X156510476Y-98882200D02*
X156415238Y-98929819D01*
X156415238Y-98929819D02*
X156177143Y-98929819D01*
X156177143Y-98929819D02*
X156081905Y-98882200D01*
X156081905Y-98882200D02*
X156034286Y-98834580D01*
D12*
X148037950Y-68710641D02*
X148037950Y-69343948D01*
X148037950Y-69343948D02*
X148075204Y-69418454D01*
X148075204Y-69418454D02*
X148112457Y-69455708D01*
X148112457Y-69455708D02*
X148186964Y-69492961D01*
X148186964Y-69492961D02*
X148335977Y-69492961D01*
X148335977Y-69492961D02*
X148410484Y-69455708D01*
X148410484Y-69455708D02*
X148447737Y-69418454D01*
X148447737Y-69418454D02*
X148484990Y-69343948D01*
X148484990Y-69343948D02*
X148484990Y-68710641D01*
X149267310Y-69492961D02*
X148820270Y-69492961D01*
X149043790Y-69492961D02*
X149043790Y-68710641D01*
X149043790Y-68710641D02*
X148969283Y-68822401D01*
X148969283Y-68822401D02*
X148894777Y-68896908D01*
X148894777Y-68896908D02*
X148820270Y-68934161D01*
D11*
X144403333Y-93834580D02*
X144355714Y-93882200D01*
X144355714Y-93882200D02*
X144212857Y-93929819D01*
X144212857Y-93929819D02*
X144117619Y-93929819D01*
X144117619Y-93929819D02*
X143974762Y-93882200D01*
X143974762Y-93882200D02*
X143879524Y-93786961D01*
X143879524Y-93786961D02*
X143831905Y-93691723D01*
X143831905Y-93691723D02*
X143784286Y-93501247D01*
X143784286Y-93501247D02*
X143784286Y-93358390D01*
X143784286Y-93358390D02*
X143831905Y-93167914D01*
X143831905Y-93167914D02*
X143879524Y-93072676D01*
X143879524Y-93072676D02*
X143974762Y-92977438D01*
X143974762Y-92977438D02*
X144117619Y-92929819D01*
X144117619Y-92929819D02*
X144212857Y-92929819D01*
X144212857Y-92929819D02*
X144355714Y-92977438D01*
X144355714Y-92977438D02*
X144403333Y-93025057D01*
X144784286Y-93025057D02*
X144831905Y-92977438D01*
X144831905Y-92977438D02*
X144927143Y-92929819D01*
X144927143Y-92929819D02*
X145165238Y-92929819D01*
X145165238Y-92929819D02*
X145260476Y-92977438D01*
X145260476Y-92977438D02*
X145308095Y-93025057D01*
X145308095Y-93025057D02*
X145355714Y-93120295D01*
X145355714Y-93120295D02*
X145355714Y-93215533D01*
X145355714Y-93215533D02*
X145308095Y-93358390D01*
X145308095Y-93358390D02*
X144736667Y-93929819D01*
X144736667Y-93929819D02*
X145355714Y-93929819D01*
X144733333Y-96859580D02*
X144685714Y-96907200D01*
X144685714Y-96907200D02*
X144542857Y-96954819D01*
X144542857Y-96954819D02*
X144447619Y-96954819D01*
X144447619Y-96954819D02*
X144304762Y-96907200D01*
X144304762Y-96907200D02*
X144209524Y-96811961D01*
X144209524Y-96811961D02*
X144161905Y-96716723D01*
X144161905Y-96716723D02*
X144114286Y-96526247D01*
X144114286Y-96526247D02*
X144114286Y-96383390D01*
X144114286Y-96383390D02*
X144161905Y-96192914D01*
X144161905Y-96192914D02*
X144209524Y-96097676D01*
X144209524Y-96097676D02*
X144304762Y-96002438D01*
X144304762Y-96002438D02*
X144447619Y-95954819D01*
X144447619Y-95954819D02*
X144542857Y-95954819D01*
X144542857Y-95954819D02*
X144685714Y-96002438D01*
X144685714Y-96002438D02*
X144733333Y-96050057D01*
X145066667Y-95954819D02*
X145685714Y-95954819D01*
X145685714Y-95954819D02*
X145352381Y-96335771D01*
X145352381Y-96335771D02*
X145495238Y-96335771D01*
X145495238Y-96335771D02*
X145590476Y-96383390D01*
X145590476Y-96383390D02*
X145638095Y-96431009D01*
X145638095Y-96431009D02*
X145685714Y-96526247D01*
X145685714Y-96526247D02*
X145685714Y-96764342D01*
X145685714Y-96764342D02*
X145638095Y-96859580D01*
X145638095Y-96859580D02*
X145590476Y-96907200D01*
X145590476Y-96907200D02*
X145495238Y-96954819D01*
X145495238Y-96954819D02*
X145209524Y-96954819D01*
X145209524Y-96954819D02*
X145114286Y-96907200D01*
X145114286Y-96907200D02*
X145066667Y-96859580D01*
X153337803Y-95504818D02*
X153337803Y-96314341D01*
X153337803Y-96314341D02*
X153385422Y-96409579D01*
X153385422Y-96409579D02*
X153433041Y-96457199D01*
X153433041Y-96457199D02*
X153528279Y-96504818D01*
X153528279Y-96504818D02*
X153718755Y-96504818D01*
X153718755Y-96504818D02*
X153813993Y-96457199D01*
X153813993Y-96457199D02*
X153861612Y-96409579D01*
X153861612Y-96409579D02*
X153909231Y-96314341D01*
X153909231Y-96314341D02*
X153909231Y-95504818D01*
X154337803Y-95600056D02*
X154385422Y-95552437D01*
X154385422Y-95552437D02*
X154480660Y-95504818D01*
X154480660Y-95504818D02*
X154718755Y-95504818D01*
X154718755Y-95504818D02*
X154813993Y-95552437D01*
X154813993Y-95552437D02*
X154861612Y-95600056D01*
X154861612Y-95600056D02*
X154909231Y-95695294D01*
X154909231Y-95695294D02*
X154909231Y-95790532D01*
X154909231Y-95790532D02*
X154861612Y-95933389D01*
X154861612Y-95933389D02*
X154290184Y-96504818D01*
X154290184Y-96504818D02*
X154909231Y-96504818D01*
X158903333Y-93884580D02*
X158855714Y-93932200D01*
X158855714Y-93932200D02*
X158712857Y-93979819D01*
X158712857Y-93979819D02*
X158617619Y-93979819D01*
X158617619Y-93979819D02*
X158474762Y-93932200D01*
X158474762Y-93932200D02*
X158379524Y-93836961D01*
X158379524Y-93836961D02*
X158331905Y-93741723D01*
X158331905Y-93741723D02*
X158284286Y-93551247D01*
X158284286Y-93551247D02*
X158284286Y-93408390D01*
X158284286Y-93408390D02*
X158331905Y-93217914D01*
X158331905Y-93217914D02*
X158379524Y-93122676D01*
X158379524Y-93122676D02*
X158474762Y-93027438D01*
X158474762Y-93027438D02*
X158617619Y-92979819D01*
X158617619Y-92979819D02*
X158712857Y-92979819D01*
X158712857Y-92979819D02*
X158855714Y-93027438D01*
X158855714Y-93027438D02*
X158903333Y-93075057D01*
X159236667Y-92979819D02*
X159903333Y-92979819D01*
X159903333Y-92979819D02*
X159474762Y-93979819D01*
D13*
X165029047Y-90445270D02*
X164908095Y-90384794D01*
X164908095Y-90384794D02*
X164787142Y-90263842D01*
X164787142Y-90263842D02*
X164605714Y-90082413D01*
X164605714Y-90082413D02*
X164484761Y-90021937D01*
X164484761Y-90021937D02*
X164363809Y-90021937D01*
X164424285Y-90324318D02*
X164303333Y-90263842D01*
X164303333Y-90263842D02*
X164182380Y-90142889D01*
X164182380Y-90142889D02*
X164121904Y-89900984D01*
X164121904Y-89900984D02*
X164121904Y-89477651D01*
X164121904Y-89477651D02*
X164182380Y-89235746D01*
X164182380Y-89235746D02*
X164303333Y-89114794D01*
X164303333Y-89114794D02*
X164424285Y-89054318D01*
X164424285Y-89054318D02*
X164666190Y-89054318D01*
X164666190Y-89054318D02*
X164787142Y-89114794D01*
X164787142Y-89114794D02*
X164908095Y-89235746D01*
X164908095Y-89235746D02*
X164968571Y-89477651D01*
X164968571Y-89477651D02*
X164968571Y-89900984D01*
X164968571Y-89900984D02*
X164908095Y-90142889D01*
X164908095Y-90142889D02*
X164787142Y-90263842D01*
X164787142Y-90263842D02*
X164666190Y-90324318D01*
X164666190Y-90324318D02*
X164424285Y-90324318D01*
X166178095Y-90324318D02*
X165452380Y-90324318D01*
X165815237Y-90324318D02*
X165815237Y-89054318D01*
X165815237Y-89054318D02*
X165694285Y-89235746D01*
X165694285Y-89235746D02*
X165573333Y-89356699D01*
X165573333Y-89356699D02*
X165452380Y-89417175D01*
D11*
X144403333Y-98884580D02*
X144355714Y-98932200D01*
X144355714Y-98932200D02*
X144212857Y-98979819D01*
X144212857Y-98979819D02*
X144117619Y-98979819D01*
X144117619Y-98979819D02*
X143974762Y-98932200D01*
X143974762Y-98932200D02*
X143879524Y-98836961D01*
X143879524Y-98836961D02*
X143831905Y-98741723D01*
X143831905Y-98741723D02*
X143784286Y-98551247D01*
X143784286Y-98551247D02*
X143784286Y-98408390D01*
X143784286Y-98408390D02*
X143831905Y-98217914D01*
X143831905Y-98217914D02*
X143879524Y-98122676D01*
X143879524Y-98122676D02*
X143974762Y-98027438D01*
X143974762Y-98027438D02*
X144117619Y-97979819D01*
X144117619Y-97979819D02*
X144212857Y-97979819D01*
X144212857Y-97979819D02*
X144355714Y-98027438D01*
X144355714Y-98027438D02*
X144403333Y-98075057D01*
X145355714Y-98979819D02*
X144784286Y-98979819D01*
X145070000Y-98979819D02*
X145070000Y-97979819D01*
X145070000Y-97979819D02*
X144974762Y-98122676D01*
X144974762Y-98122676D02*
X144879524Y-98217914D01*
X144879524Y-98217914D02*
X144784286Y-98265533D01*
%TO.C,D1*%
D14*
X139210000Y-91000000D02*
X135350000Y-91000000D01*
X139210000Y-93000000D02*
X135350000Y-93000000D01*
X139210000Y-93000000D02*
X139210000Y-91000000D01*
%TO.C,C8*%
X159990000Y-98665580D02*
X159990000Y-98384420D01*
X161010000Y-98665580D02*
X161010000Y-98384420D01*
%TO.C,C4*%
X148490000Y-98665580D02*
X148490000Y-98384420D01*
X149510000Y-98665580D02*
X149510000Y-98384420D01*
%TO.C,U3*%
D15*
X131896500Y-80624400D02*
X131896500Y-87685600D01*
X131896500Y-87685600D02*
X135147700Y-87685600D01*
X135147700Y-80624400D02*
X131896500Y-80624400D01*
X135147700Y-81587060D02*
X135147700Y-80624400D01*
X135147700Y-87685600D02*
X135147700Y-86722940D01*
%TO.C,L1*%
D14*
X148490000Y-93625279D02*
X148490000Y-93299721D01*
X149510000Y-93625279D02*
X149510000Y-93299721D01*
%TO.C,C6*%
X156990000Y-93615580D02*
X156990000Y-93334420D01*
X158010000Y-93615580D02*
X158010000Y-93334420D01*
%TO.C,R2*%
X162187742Y-85152500D02*
X162662258Y-85152500D01*
X162187742Y-86197500D02*
X162662258Y-86197500D01*
%TO.C,R1*%
X160977500Y-89912258D02*
X160977500Y-89437742D01*
X162022500Y-89912258D02*
X162022500Y-89437742D01*
%TO.C,C5*%
X156740000Y-98615580D02*
X156740000Y-98334420D01*
X157760000Y-98615580D02*
X157760000Y-98334420D01*
%TO.C,U1*%
D10*
X140669500Y-88943250D02*
X140669500Y-71798250D01*
X142574500Y-90848250D02*
X156544500Y-90848250D01*
D16*
X145064500Y-69893250D02*
X145068228Y-68882978D01*
X145568228Y-68383250D02*
X153563500Y-68383250D01*
X154063500Y-68883250D02*
X154063500Y-69893250D01*
D10*
X156544500Y-69893250D02*
X142574500Y-69893250D01*
X158449500Y-88943250D02*
X158449500Y-71798250D01*
X140669500Y-71794250D02*
G75*
G02*
X142574500Y-69889250I1905001J-1D01*
G01*
X142574500Y-90848250D02*
G75*
G02*
X140669500Y-88943250I0J1905000D01*
G01*
D16*
X145068228Y-68882978D02*
G75*
G02*
X145568228Y-68383248I500022J-292D01*
G01*
X153563500Y-68383250D02*
G75*
G02*
X154063500Y-68883250I0J-500000D01*
G01*
D10*
X156544500Y-69893250D02*
G75*
G02*
X158449500Y-71798250I0J-1905000D01*
G01*
X158449500Y-88943250D02*
G75*
G02*
X156544500Y-90848250I-1905000J0D01*
G01*
D17*
X140711500Y-70309250D02*
G75*
G02*
X140207500Y-70309250I-252000J0D01*
G01*
X140207500Y-70309250D02*
G75*
G02*
X140711500Y-70309250I252000J0D01*
G01*
X141854500Y-71189250D02*
G75*
G02*
X141350500Y-71189250I-252000J0D01*
G01*
X141350500Y-71189250D02*
G75*
G02*
X141854500Y-71189250I252000J0D01*
G01*
%TO.C,C2*%
D14*
X145490000Y-93615580D02*
X145490000Y-93334420D01*
X146510000Y-93615580D02*
X146510000Y-93334420D01*
%TO.C,C3*%
X139460000Y-96740000D02*
X137279000Y-96740000D01*
X139460000Y-96780000D02*
X137282000Y-96780000D01*
X139460000Y-96820000D02*
X137286000Y-96820000D01*
X139460000Y-96860000D02*
X137290000Y-96860000D01*
X139460000Y-96900000D02*
X137295000Y-96900000D01*
X139460000Y-96940000D02*
X137300000Y-96940000D01*
X139460000Y-96980000D02*
X137305000Y-96980000D01*
X139460000Y-97020000D02*
X137312000Y-97020000D01*
X139460000Y-97060000D02*
X137318000Y-97060000D01*
X139460000Y-97100000D02*
X137326000Y-97100000D01*
X139460000Y-97140000D02*
X137333000Y-97140000D01*
X139460000Y-97180000D02*
X137341000Y-97180000D01*
X139460000Y-97220000D02*
X137350000Y-97220000D01*
X139460000Y-97260000D02*
X137360000Y-97260000D01*
X139460000Y-97300000D02*
X137369000Y-97300000D01*
X139460000Y-97340000D02*
X137380000Y-97340000D01*
X139460000Y-97380000D02*
X137391000Y-97380000D01*
X139460000Y-97420000D02*
X137402000Y-97420000D01*
X139460000Y-97460000D02*
X137414000Y-97460000D01*
X139460000Y-97500000D02*
X137427000Y-97500000D01*
X139460000Y-97540000D02*
X137440000Y-97540000D01*
X139460000Y-97580000D02*
X137453000Y-97580000D01*
X139460000Y-97620000D02*
X137468000Y-97620000D01*
X139460000Y-97660000D02*
X137483000Y-97660000D01*
X139460000Y-97700000D02*
X137498000Y-97700000D01*
X139460000Y-97740000D02*
X137514000Y-97740000D01*
X139460000Y-97780000D02*
X137531000Y-97780000D01*
X139460000Y-97820000D02*
X137548000Y-97820000D01*
X139460000Y-97860000D02*
X137566000Y-97860000D01*
X139460000Y-97900000D02*
X137585000Y-97900000D01*
X139460000Y-97940000D02*
X137604000Y-97940000D01*
X139460000Y-97980000D02*
X137624000Y-97980000D01*
X139460000Y-98020000D02*
X137645000Y-98020000D01*
X139460000Y-98060000D02*
X137666000Y-98060000D01*
X139460000Y-98100000D02*
X137688000Y-98100000D01*
X139460000Y-98140000D02*
X137711000Y-98140000D01*
X139460000Y-98180000D02*
X137735000Y-98180000D01*
X139460000Y-98220000D02*
X137759000Y-98220000D01*
X139460000Y-98260000D02*
X137784000Y-98260000D01*
X139460000Y-98300000D02*
X137810000Y-98300000D01*
X139460000Y-98340000D02*
X137837000Y-98340000D01*
X139460000Y-98380000D02*
X137864000Y-98380000D01*
X139460000Y-98420000D02*
X137893000Y-98420000D01*
X139460000Y-98460000D02*
X137923000Y-98460000D01*
X139460000Y-98500000D02*
X137953000Y-98500000D01*
X139460000Y-98540000D02*
X137984000Y-98540000D01*
X139460000Y-98580000D02*
X138017000Y-98580000D01*
X139460000Y-98620000D02*
X138050000Y-98620000D01*
X139460000Y-98660000D02*
X138085000Y-98660000D01*
X139460000Y-98700000D02*
X138121000Y-98700000D01*
X139460000Y-98740000D02*
X138158000Y-98740000D01*
X139460000Y-98780000D02*
X138196000Y-98780000D01*
X140902000Y-99740000D02*
X140098000Y-99740000D01*
X141133000Y-99700000D02*
X139867000Y-99700000D01*
X141301000Y-99660000D02*
X139699000Y-99660000D01*
X141439000Y-99620000D02*
X139561000Y-99620000D01*
X141558000Y-99580000D02*
X139442000Y-99580000D01*
X141665000Y-99540000D02*
X139335000Y-99540000D01*
X141761000Y-99500000D02*
X139239000Y-99500000D01*
X141850000Y-99460000D02*
X139150000Y-99460000D01*
X141932000Y-99420000D02*
X139068000Y-99420000D01*
X142009000Y-99380000D02*
X138991000Y-99380000D01*
X142081000Y-99340000D02*
X138919000Y-99340000D01*
X142149000Y-99300000D02*
X138851000Y-99300000D01*
X142214000Y-99260000D02*
X138786000Y-99260000D01*
X142275000Y-99220000D02*
X138725000Y-99220000D01*
X142334000Y-99180000D02*
X138666000Y-99180000D01*
X142339000Y-92999759D02*
X142339000Y-93629759D01*
X142390000Y-99140000D02*
X138610000Y-99140000D01*
X142443000Y-99100000D02*
X138557000Y-99100000D01*
X142495000Y-99060000D02*
X138505000Y-99060000D01*
X142544000Y-99020000D02*
X138456000Y-99020000D01*
X142591000Y-98980000D02*
X138409000Y-98980000D01*
X142637000Y-98940000D02*
X138363000Y-98940000D01*
X142654000Y-93314759D02*
X142024000Y-93314759D01*
X142681000Y-98900000D02*
X138319000Y-98900000D01*
X142723000Y-98860000D02*
X138277000Y-98860000D01*
X142764000Y-98820000D02*
X138236000Y-98820000D01*
X142804000Y-98780000D02*
X141540000Y-98780000D01*
X142842000Y-98740000D02*
X141540000Y-98740000D01*
X142879000Y-98700000D02*
X141540000Y-98700000D01*
X142915000Y-98660000D02*
X141540000Y-98660000D01*
X142950000Y-98620000D02*
X141540000Y-98620000D01*
X142983000Y-98580000D02*
X141540000Y-98580000D01*
X143016000Y-98540000D02*
X141540000Y-98540000D01*
X143047000Y-98500000D02*
X141540000Y-98500000D01*
X143077000Y-98460000D02*
X141540000Y-98460000D01*
X143107000Y-98420000D02*
X141540000Y-98420000D01*
X143136000Y-98380000D02*
X141540000Y-98380000D01*
X143163000Y-98340000D02*
X141540000Y-98340000D01*
X143190000Y-98300000D02*
X141540000Y-98300000D01*
X143216000Y-98260000D02*
X141540000Y-98260000D01*
X143241000Y-98220000D02*
X141540000Y-98220000D01*
X143265000Y-98180000D02*
X141540000Y-98180000D01*
X143289000Y-98140000D02*
X141540000Y-98140000D01*
X143312000Y-98100000D02*
X141540000Y-98100000D01*
X143334000Y-98060000D02*
X141540000Y-98060000D01*
X143355000Y-98020000D02*
X141540000Y-98020000D01*
X143376000Y-97980000D02*
X141540000Y-97980000D01*
X143396000Y-97940000D02*
X141540000Y-97940000D01*
X143415000Y-97900000D02*
X141540000Y-97900000D01*
X143434000Y-97860000D02*
X141540000Y-97860000D01*
X143452000Y-97820000D02*
X141540000Y-97820000D01*
X143469000Y-97780000D02*
X141540000Y-97780000D01*
X143486000Y-97740000D02*
X141540000Y-97740000D01*
X143502000Y-97700000D02*
X141540000Y-97700000D01*
X143517000Y-97660000D02*
X141540000Y-97660000D01*
X143532000Y-97620000D02*
X141540000Y-97620000D01*
X143547000Y-97580000D02*
X141540000Y-97580000D01*
X143560000Y-97540000D02*
X141540000Y-97540000D01*
X143573000Y-97500000D02*
X141540000Y-97500000D01*
X143586000Y-97460000D02*
X141540000Y-97460000D01*
X143598000Y-97420000D02*
X141540000Y-97420000D01*
X143609000Y-97380000D02*
X141540000Y-97380000D01*
X143620000Y-97340000D02*
X141540000Y-97340000D01*
X143631000Y-97300000D02*
X141540000Y-97300000D01*
X143640000Y-97260000D02*
X141540000Y-97260000D01*
X143650000Y-97220000D02*
X141540000Y-97220000D01*
X143659000Y-97180000D02*
X141540000Y-97180000D01*
X143667000Y-97140000D02*
X141540000Y-97140000D01*
X143674000Y-97100000D02*
X141540000Y-97100000D01*
X143682000Y-97060000D02*
X141540000Y-97060000D01*
X143688000Y-97020000D02*
X141540000Y-97020000D01*
X143695000Y-96980000D02*
X141540000Y-96980000D01*
X143700000Y-96940000D02*
X141540000Y-96940000D01*
X143705000Y-96900000D02*
X141540000Y-96900000D01*
X143710000Y-96860000D02*
X141540000Y-96860000D01*
X143714000Y-96820000D02*
X141540000Y-96820000D01*
X143718000Y-96780000D02*
X141540000Y-96780000D01*
X143721000Y-96740000D02*
X141540000Y-96740000D01*
X143724000Y-96700000D02*
X137276000Y-96700000D01*
X143726000Y-96660000D02*
X137274000Y-96660000D01*
X143728000Y-96620000D02*
X137272000Y-96620000D01*
X143729000Y-96580000D02*
X137271000Y-96580000D01*
X143730000Y-96500000D02*
X137270000Y-96500000D01*
X143730000Y-96540000D02*
X137270000Y-96540000D01*
X143770000Y-96500000D02*
G75*
G02*
X137230000Y-96500000I-3270000J0D01*
G01*
X137230000Y-96500000D02*
G75*
G02*
X143770000Y-96500000I3270000J0D01*
G01*
%TO.C,U2*%
D11*
X152699708Y-94350000D02*
X155499708Y-94350000D01*
X152699708Y-97749998D02*
X155499708Y-97749998D01*
D18*
X151574709Y-95099998D02*
G75*
G02*
X151324707Y-95099998I-125001J0D01*
G01*
X151324707Y-95099998D02*
G75*
G02*
X151574709Y-95099998I125001J0D01*
G01*
%TO.C,C7*%
D14*
X159990000Y-93665580D02*
X159990000Y-93384420D01*
X161010000Y-93665580D02*
X161010000Y-93384420D01*
%TO.C,Q1*%
D19*
X163475000Y-88250000D02*
X164625000Y-88250000D01*
X164975000Y-88290000D02*
X165325000Y-88290000D01*
X164975000Y-91210000D02*
X164975000Y-88290000D01*
X165325000Y-88290000D02*
X165325000Y-91210000D01*
X165325000Y-91210000D02*
X164975000Y-91210000D01*
%TO.C,C1*%
D14*
X145490000Y-98665580D02*
X145490000Y-98384420D01*
X146510000Y-98665580D02*
X146510000Y-98384420D01*
%TD*%
M02*
